<svg width="109" height="45" viewBox="0 0 109 45" fill="none" xmlns="http://www.w3.org/2000/svg">
<g clip-path="url(#clip0_123_10573)">
<path d="M0.0256348 13.7425L0.0476677 12.8357H5.82031V13.7425H4.80682C4.38816 13.7425 4.14581 13.772 4.07971 13.8309C4.01361 13.8862 3.96221 13.9452 3.92547 14.0079C3.86672 14.1074 3.83736 14.2972 3.83736 14.5773V26.017C3.83736 26.4925 3.93098 26.7689 4.11827 26.8463C4.21743 26.8832 4.37164 26.9016 4.58097 26.9016C8.38167 26.8795 10.383 26.7671 10.585 26.5644C10.6988 26.4501 10.7833 26.2603 10.8384 25.9949C10.8934 25.7295 10.9375 25.5083 10.9705 25.3314C11.0073 25.1545 11.0403 24.9757 11.0697 24.7951C11.1027 24.6108 11.1431 24.3841 11.1909 24.115L11.9786 24.1592L11.2349 27.9411H0.339605L0.317573 27.0565H0.951021C1.46513 27.0565 1.75523 27.0251 1.82133 26.9625C1.8911 26.8961 1.93333 26.8482 1.94802 26.8187C1.96271 26.7892 1.97556 26.7376 1.98657 26.6639C2.00126 26.5644 2.00861 26.4095 2.00861 26.1995V14.4889C2.00861 14.1645 1.92782 13.9599 1.76625 13.8752C1.60467 13.7867 1.28703 13.7425 0.813315 13.7425H0.0256348Z" fill="black"/>
<path d="M17.9823 26.9016C20.9898 26.8722 22.78 26.8335 23.3529 26.7855C23.9294 26.7376 24.2581 26.6731 24.3389 26.592C24.4196 26.5109 24.4802 26.4114 24.5206 26.2934C24.5647 26.1718 24.6859 25.5138 24.8842 24.3196L25.6553 24.4301L25.088 27.9411H13.6528V27.0565H14.2367C14.7985 27.0565 15.1199 27.0288 15.2006 26.9735C15.2851 26.9145 15.3439 26.8463 15.3769 26.7689C15.4136 26.6731 15.432 26.4833 15.432 26.1995V14.7156C15.432 14.2659 15.3512 13.9858 15.1896 13.8752C15.0501 13.7867 14.6039 13.7425 13.8511 13.7425H13.2232L13.2012 12.8357H24.8181C24.8401 14.1369 24.8787 15.3219 24.9338 16.3909L24.0524 16.4351C23.9974 14.946 23.8853 14.1111 23.7164 13.9305C23.665 13.8752 23.5787 13.842 23.4575 13.8309C23.34 13.8162 22.9893 13.8088 22.4055 13.8088H18.5662C17.9456 13.8088 17.5931 13.842 17.5086 13.9083C17.4242 13.9747 17.3636 14.0558 17.3269 14.1516C17.2828 14.2622 17.2607 14.5036 17.2607 14.8759V18.022C17.2607 18.4643 17.2828 18.7113 17.3269 18.7628C17.3746 18.8108 17.4297 18.8476 17.4921 18.8734C17.5729 18.9103 17.7436 18.9287 18.0043 18.9287H21.414C21.8106 18.9287 22.0383 18.89 22.097 18.8126C22.1558 18.7315 22.1962 18.643 22.2182 18.5472C22.2512 18.4219 22.2677 18.1713 22.2677 17.7953V16.9327L23.105 16.9548V22.3678H22.2677V21.1901C22.2677 20.5598 22.2365 20.2059 22.1741 20.1285C22.1117 20.0511 22.0676 20.005 22.0419 19.9903C22.0199 19.9719 21.9703 19.9571 21.8932 19.9461C21.8198 19.9313 21.7592 19.924 21.7114 19.924H18.0705C17.6959 19.924 17.4719 19.9608 17.3985 20.0345C17.3067 20.1341 17.2607 20.3313 17.2607 20.6262V25.9728C17.2607 26.3635 17.3067 26.616 17.3985 26.7303C17.4903 26.8445 17.6849 26.9016 17.9823 26.9016Z" fill="black"/>
<path d="M28.0515 17.1263C28.0515 16.9789 28.1378 16.8535 28.3104 16.7503C28.483 16.6434 28.6299 16.5421 28.7511 16.4462C28.8722 16.3467 28.9843 16.2417 29.0871 16.1311C29.3293 15.8768 29.4506 15.5984 29.4506 15.2962C29.4506 14.9903 29.4213 14.7728 29.3624 14.6438C29.3073 14.511 29.2376 14.4115 29.1532 14.3452C29.0687 14.2788 28.9751 14.2199 28.8722 14.1683C28.7731 14.1167 28.6813 14.078 28.5968 14.0521C28.3985 13.9932 28.2994 13.9121 28.2994 13.8089C28.2994 13.7904 28.3288 13.7223 28.3875 13.6043L28.9273 12.8136C29.0448 12.633 29.1532 12.5427 29.2523 12.5427C29.3551 12.5427 29.557 12.6349 29.8582 12.8192C30.1594 13.0035 30.3428 13.127 30.409 13.1896C30.6367 13.3997 30.7598 13.7259 30.7782 14.1683V14.3065C30.7782 15.1248 30.4512 15.8657 29.7975 16.5292C29.482 16.8462 29.1844 17.0618 28.9053 17.1761C28.6299 17.2867 28.4187 17.3419 28.2719 17.3419C28.125 17.3419 28.0515 17.2701 28.0515 17.1263Z" fill="black"/>
<path d="M36.7544 27.9411V27.0565H37.4541C37.8248 27.0565 38.0416 27.0343 38.104 26.9901C38.1664 26.9422 38.2069 26.8869 38.2253 26.8242C38.2508 26.7542 38.2637 26.6123 38.2637 26.3985V14.5552C38.2637 14.1793 38.2177 13.9544 38.126 13.8807C38.005 13.7885 37.7644 13.7425 37.4046 13.7425H36.8206L36.8426 12.8357H41.4915C43.0339 12.8357 44.0181 12.8965 44.4439 13.0182C45.1565 13.2209 45.7586 13.5231 46.2506 13.9249C46.7428 14.323 47.1633 14.8649 47.512 15.5505C47.861 16.2324 48.0353 17.0028 48.0353 17.8616C48.0353 19.2033 47.4754 20.2852 46.3555 21.1072C45.555 21.6933 44.5265 21.9863 43.2707 21.9863C42.3122 21.9863 41.3154 21.8444 40.2799 21.5606C40.1586 21.5274 40.0962 21.5108 40.0924 21.5108V26.3985C40.0924 26.7155 40.1568 26.898 40.2852 26.9459C40.4762 27.0196 40.9225 27.0565 41.6236 27.0565H42.7529V27.9411H36.7544ZM40.0924 20.8307C40.4745 21.1182 41.2216 21.262 42.3342 21.262C43.4471 21.262 44.3211 20.969 44.9564 20.3829C45.5951 19.7968 45.9148 18.9416 45.9148 17.8174C45.9148 16.284 45.206 15.1487 43.7884 14.4115C42.9328 13.9655 41.9266 13.7425 40.7701 13.7425C40.5055 13.7425 40.3367 13.7867 40.2632 13.8752C40.1495 14.0152 40.0924 14.3175 40.0924 14.7819V20.8307Z" fill="black"/>
<path d="M54.4251 26.9016C57.4326 26.8722 59.2229 26.8335 59.7957 26.7855C60.372 26.7376 60.7008 26.6731 60.7817 26.592C60.8623 26.5109 60.9229 26.4114 60.9633 26.2934C61.0073 26.1718 61.1286 25.5138 61.327 24.3196L62.0982 24.4301L61.5306 27.9411H50.0956V27.0565H50.6795C51.2412 27.0565 51.5627 27.0288 51.6433 26.9735C51.7279 26.9145 51.7865 26.8463 51.8196 26.7689C51.8563 26.6731 51.8747 26.4833 51.8747 26.1995V14.7156C51.8747 14.2659 51.7939 13.9858 51.6324 13.8752C51.4929 13.7867 51.0467 13.7425 50.2939 13.7425H49.666L49.644 12.8357H61.2607C61.2827 14.1369 61.3214 15.3219 61.3765 16.3909L60.4951 16.4351C60.44 14.946 60.3281 14.1111 60.159 13.9305C60.1077 13.8752 60.0216 13.842 59.9003 13.8309C59.7828 13.8162 59.4321 13.8088 58.8481 13.8088H55.0091C54.3885 13.8088 54.0357 13.842 53.9513 13.9083C53.8669 13.9747 53.8063 14.0558 53.7696 14.1516C53.7254 14.2622 53.7034 14.5036 53.7034 14.8759V18.022C53.7034 18.4643 53.7254 18.7113 53.7696 18.7628C53.8174 18.8108 53.8725 18.8476 53.9349 18.8734C54.0158 18.9103 54.1863 18.9287 54.4471 18.9287H57.8568C58.2533 18.9287 58.481 18.89 58.5398 18.8126C58.5985 18.7315 58.6389 18.643 58.6609 18.5472C58.694 18.4219 58.7104 18.1713 58.7104 17.7953V16.9327L59.5478 16.9548V22.3678H58.7104V21.1901C58.7104 20.5598 58.6793 20.2059 58.6169 20.1285C58.5545 20.0511 58.5103 20.005 58.4848 19.9903C58.4625 19.9719 58.413 19.9571 58.3359 19.9461C58.2624 19.9313 58.202 19.924 58.1542 19.924H54.5133C54.1385 19.924 53.9147 19.9608 53.8411 20.0345C53.7494 20.1341 53.7034 20.3313 53.7034 20.6262V25.9728C53.7034 26.3635 53.7494 26.616 53.8411 26.7303C53.9331 26.8445 54.1277 26.9016 54.4251 26.9016Z" fill="black"/>
<path d="M69.3193 20.9911C68.3974 20.9911 67.7127 20.945 67.2647 20.8528V26.3985C67.2647 26.7118 67.3344 26.8961 67.4739 26.9514C67.6503 27.0214 68.1 27.0565 68.8235 27.0565H69.9747L69.9308 27.9411H63.9267V27.0565H64.4444C64.9256 27.0565 65.1972 27.038 65.2596 27.0012C65.322 26.9606 65.3662 26.909 65.3917 26.8463C65.4248 26.78 65.4415 26.6307 65.4415 26.3985V14.5552C65.4415 14.135 65.2707 13.8862 64.9291 13.8088C64.7383 13.7646 64.4573 13.7425 64.0864 13.7425H63.4529L63.4749 12.8357H68.6638C69.8607 12.8357 70.7937 12.9131 71.462 13.0679C72.1339 13.219 72.7308 13.5084 73.252 13.936C73.7771 14.3599 74.1774 14.8501 74.4528 15.4067C74.732 15.9596 74.8715 16.4517 74.8715 16.883C74.8715 17.3143 74.8366 17.6681 74.7669 17.9445C74.7007 18.221 74.587 18.4993 74.4253 18.7794C74.2676 19.0559 74.0675 19.3102 73.8249 19.5425C73.289 20.0548 72.5617 20.4308 71.6437 20.6704L75.9732 26.4483C76.1789 26.7063 76.3495 26.8722 76.4854 26.9459C76.6214 27.0196 76.7755 27.0565 76.9481 27.0565H77.9176L77.9616 27.9411H74.6898L69.859 20.9634L69.3193 20.9911ZM67.2647 20.1064C67.4446 20.2575 67.9274 20.3331 68.7133 20.3331C70.0793 20.3331 71.0744 20.0972 71.6988 19.6254C72.3232 19.1536 72.6353 18.4219 72.6353 17.4303C72.6353 16.3393 72.235 15.4565 71.4345 14.7819C70.6117 14.089 69.4479 13.7425 67.9421 13.7425C67.6778 13.7425 67.5087 13.7867 67.4355 13.8752C67.3215 14.0152 67.2647 14.3175 67.2647 14.7819V20.1064Z" fill="black"/>
<path d="M79.2122 13.7425L79.2341 12.8357H85.0067V13.7425H83.9932C83.5745 13.7425 83.3322 13.772 83.2663 13.8309C83.2 13.8862 83.1488 13.9452 83.1118 14.0079C83.0532 14.1074 83.0236 14.2972 83.0236 14.5773V26.017C83.0236 26.4925 83.1174 26.7689 83.3046 26.8463C83.404 26.8832 83.5581 26.9016 83.7673 26.9016C87.568 26.8795 89.5695 26.7671 89.7714 26.5644C89.8851 26.4501 89.9698 26.2603 90.0248 25.9949C90.0799 25.7295 90.1239 25.5083 90.157 25.3314C90.1936 25.1545 90.2267 24.9757 90.256 24.7951C90.2891 24.6108 90.3296 24.3841 90.3773 24.115L91.1649 24.1592L90.4213 27.9411H79.526L79.504 27.0565H80.1375C80.6514 27.0565 80.9415 27.0251 81.0077 26.9625C81.0775 26.8961 81.1197 26.8482 81.1343 26.8187C81.1493 26.7892 81.1619 26.7376 81.173 26.6639C81.1876 26.5644 81.195 26.4095 81.195 26.1995V14.4889C81.195 14.1645 81.1141 13.9599 80.9526 13.8752C80.7912 13.7867 80.4736 13.7425 79.9998 13.7425H79.2122Z" fill="black"/>
<path d="M97.169 26.9016C100.177 26.8722 101.967 26.8335 102.54 26.7855C103.116 26.7376 103.445 26.6731 103.526 26.592C103.606 26.5109 103.667 26.4114 103.707 26.2934C103.751 26.1718 103.873 25.5138 104.071 24.3196L104.842 24.4301L104.275 27.9411H92.8395V27.0565H93.4235C93.9852 27.0565 94.3066 27.0288 94.3872 26.9735C94.4719 26.9145 94.5305 26.8463 94.5636 26.7689C94.6002 26.6731 94.6187 26.4833 94.6187 26.1995V14.7156C94.6187 14.2659 94.5378 13.9858 94.3764 13.8752C94.2369 13.7867 93.7906 13.7425 93.0379 13.7425H92.41L92.3877 12.8357H104.005C104.027 14.1369 104.065 15.3219 104.12 16.3909L103.239 16.4351C103.184 14.946 103.072 14.1111 102.903 13.9305C102.852 13.8752 102.765 13.842 102.644 13.8309C102.527 13.8162 102.176 13.8088 101.592 13.8088H97.7527C97.1321 13.8088 96.7796 13.842 96.6953 13.9083C96.6109 13.9747 96.5502 14.0558 96.5136 14.1516C96.4693 14.2622 96.4474 14.5036 96.4474 14.8759V18.022C96.4474 18.4643 96.4693 18.7113 96.5136 18.7628C96.5613 18.8108 96.6164 18.8476 96.6788 18.8734C96.7594 18.9103 96.9302 18.9287 97.191 18.9287H100.601C100.997 18.9287 101.225 18.89 101.284 18.8126C101.342 18.7315 101.383 18.643 101.405 18.5472C101.438 18.4219 101.454 18.1713 101.454 17.7953V16.9327L102.292 16.9548V22.3678H101.454V21.1901C101.454 20.5598 101.423 20.2059 101.361 20.1285C101.298 20.0511 101.254 20.005 101.229 19.9903C101.206 19.9719 101.157 19.9571 101.08 19.9461C101.006 19.9313 100.946 19.924 100.898 19.924H97.2572C96.8825 19.924 96.6586 19.9608 96.5851 20.0345C96.4934 20.1341 96.4474 20.3313 96.4474 20.6262V25.9728C96.4474 26.3635 96.4934 26.616 96.5851 26.7303C96.6768 26.8445 96.8716 26.9016 97.169 26.9016Z" fill="black"/>
<path d="M107.651 28.1678C107.493 28.1678 107.28 28.024 107.012 27.7365C106.748 27.449 106.616 27.2168 106.616 27.0399C106.616 26.8629 106.763 26.6455 107.056 26.3874C107.35 26.1257 107.581 25.9949 107.75 25.9949C107.923 25.9949 108.134 26.1442 108.384 26.4427C108.633 26.7413 108.759 26.9772 108.759 27.1505C108.759 27.32 108.613 27.532 108.323 27.7863C108.037 28.0406 107.813 28.1678 107.651 28.1678Z" fill="black"/>
<path d="M62.3218 37.0282C62.2905 36.9861 62.2568 36.9567 62.2213 36.9399C62.1856 36.9229 62.151 36.9146 62.1173 36.9146C62.0859 36.9146 61.8876 36.9535 61.5225 37.0314L61.4595 36.6429C61.7176 36.6029 61.9421 36.5596 62.1331 36.5135C62.6828 36.3805 63.0637 36.2899 63.2756 36.2417V42.0929C63.2756 42.7902 63.2252 43.2641 63.1247 43.5146C63.0259 43.7676 62.9357 43.9464 62.8539 44.0517C62.7719 44.1594 62.6974 44.2382 62.6303 44.2888C62.5632 44.3394 62.514 44.3752 62.4824 44.3961C62.4531 44.4194 62.3933 44.4594 62.3031 44.5161C62.2128 44.5752 62.1237 44.6267 62.0355 44.6711C61.8005 44.7891 61.599 44.8479 61.4311 44.8479C61.2655 44.8479 61.1029 44.8196 60.9432 44.7626C60.7838 44.7058 60.6516 44.6373 60.5467 44.5573C60.4418 44.4773 60.3894 44.3879 60.3894 44.2888C60.3894 44.1896 60.47 44.0688 60.6317 43.9255C60.7911 43.7823 60.9171 43.7105 61.0094 43.7105C61.1017 43.7105 61.1802 43.7391 61.2453 43.7958C61.3103 43.8549 61.3713 43.9191 61.4281 43.9888C61.5749 44.1741 61.6924 44.2667 61.7806 44.2667C62.175 44.2667 62.3722 43.6799 62.3722 42.5067V37.4452C62.3722 37.2073 62.3555 37.0685 62.3218 37.0282ZM62.7344 34.3682C62.6441 34.3682 62.5348 34.2932 62.4068 34.1438C62.2811 33.992 62.2181 33.8688 62.2181 33.7741C62.2181 33.6794 62.2864 33.5667 62.4226 33.4361C62.5591 33.3055 62.6681 33.2402 62.7499 33.2402C62.834 33.2402 62.9483 33.3085 63.093 33.4455C63.2398 33.5823 63.3134 33.6973 63.3134 33.7899C63.3134 33.8805 63.2389 33.9994 63.0898 34.147C62.943 34.2944 62.8243 34.3682 62.7344 34.3682Z" fill="black"/>
<path d="M65.7402 38.5449L65.7276 38.7282C65.7276 39.6908 66.1117 40.3226 66.8797 40.6237C67.1106 40.7143 67.3415 40.7596 67.5721 40.7596C67.803 40.7596 68.0054 40.7384 68.1798 40.6964C68.3538 40.6543 68.4998 40.6037 68.6173 40.5449C68.7368 40.4837 68.8437 40.4237 68.9381 40.3646C69.171 40.2214 69.3076 40.1499 69.3474 40.1499C69.4251 40.1499 69.4638 40.1887 69.4638 40.2667C69.4638 40.3446 69.4283 40.4352 69.3568 40.5384C69.2856 40.6417 69.1784 40.7564 69.0357 40.8829C68.893 41.007 68.7304 41.1252 68.5478 41.2367C68.1156 41.5043 67.6392 41.6379 67.1188 41.6379C66.4118 41.6379 65.8474 41.4093 65.4255 40.9523C64.9807 40.4658 64.7583 39.8487 64.7583 39.1008C64.7583 38.269 64.9786 37.5929 65.4193 37.0726C65.8515 36.5629 66.3918 36.3079 67.0403 36.3079C67.7664 36.3079 68.3623 36.6008 68.8279 37.1864C69.0629 37.4811 69.1807 37.7402 69.1807 37.9635C69.1807 38.0246 69.1555 38.072 69.1051 38.1058C69.0568 38.1393 69.0137 38.1561 68.9759 38.1561L65.7402 38.5449ZM65.7654 38.0932L67.9814 37.8087C67.9269 37.617 67.8387 37.4423 67.7168 37.2843C67.5952 37.124 67.5009 37.0146 67.4338 36.9555C67.272 36.8167 67.0781 36.747 66.8513 36.747C66.6248 36.747 66.4044 36.8682 66.1902 37.1105C65.9763 37.3505 65.8348 37.6782 65.7654 38.0932Z" fill="black"/>
<path d="M71.7867 36.8103C71.5285 36.8103 71.3996 36.8841 71.3996 37.0315C71.3996 37.0968 71.4427 37.2347 71.5285 37.4453L72.7278 40.2541L74.0938 37.2653C74.0141 37.0735 73.9292 36.9506 73.8389 36.8956C73.7487 36.8388 73.6101 36.8103 73.4234 36.8103H72.9449L72.9197 36.3965H75.7054V36.8103C75.3192 36.8103 75.1085 36.8324 75.0728 36.8768C75.0391 36.9188 75.0224 36.9621 75.0224 37.0062C75.0224 37.0506 75.0613 37.1759 75.139 37.3824L76.338 40.2415L77.7166 37.3159C77.786 37.16 77.8206 37.0494 77.8206 36.9841C77.8206 36.8682 77.6316 36.8103 77.2539 36.8103H76.9173V36.3965H79.1992L79.2118 36.8103C78.9537 36.8103 78.7931 36.8241 78.7301 36.8515C78.6671 36.8788 78.6118 36.9082 78.5634 36.94C78.4711 36.9947 78.3902 37.0947 78.3211 37.24L76.1839 41.6918L75.8973 41.6791L74.3394 37.8215L72.5989 41.7044L72.3281 41.6918L70.537 37.5118C70.4218 37.2421 70.3409 37.0694 70.2946 36.9935C70.2507 36.918 70.1815 36.8682 70.0869 36.845C69.9926 36.8221 69.7901 36.8103 69.4795 36.8103V36.3965H72.1863L72.1737 36.8103H71.7867Z" fill="black"/>
<path d="M80.2065 38.5449L80.1939 38.7282C80.1939 39.6908 80.578 40.3226 81.346 40.6237C81.5769 40.7143 81.8078 40.7596 82.0384 40.7596C82.2693 40.7596 82.4718 40.7384 82.6461 40.6964C82.8201 40.6543 82.9661 40.6037 83.0836 40.5449C83.2031 40.4837 83.3101 40.4237 83.4044 40.3646C83.6373 40.2214 83.7739 40.1499 83.8137 40.1499C83.8914 40.1499 83.9301 40.1887 83.9301 40.2667C83.9301 40.3446 83.8946 40.4352 83.8231 40.5384C83.7519 40.6417 83.6447 40.7564 83.502 40.8829C83.3596 41.007 83.197 41.1252 83.0141 41.2367C82.5819 41.5043 82.1058 41.6379 81.5854 41.6379C80.8781 41.6379 80.3137 41.4093 79.8918 40.9523C79.447 40.4658 79.2246 39.8487 79.2246 39.1008C79.2246 38.269 79.4449 37.5929 79.8856 37.0726C80.3178 36.5629 80.8581 36.3079 81.5066 36.3079C82.2327 36.3079 82.8286 36.6008 83.2945 37.1864C83.5295 37.4811 83.647 37.7402 83.647 37.9635C83.647 38.0246 83.6218 38.072 83.5714 38.1058C83.5231 38.1393 83.48 38.1561 83.4422 38.1561L80.2065 38.5449ZM80.2317 38.0932L82.4477 37.8087C82.3932 37.617 82.305 37.4423 82.1834 37.2843C82.0615 37.124 81.9672 37.0146 81.9001 36.9555C81.7383 36.8167 81.5444 36.747 81.3176 36.747C81.0911 36.747 80.8707 36.8682 80.6568 37.1105C80.4427 37.3505 80.3011 37.6782 80.2317 38.0932Z" fill="black"/>
<path d="M84.3362 32.3745C85.0687 32.2733 85.7001 32.1733 86.2311 32.0745V40.7059C86.2311 40.8618 86.2803 40.9598 86.3791 40.9998C86.4775 41.0377 86.7031 41.0568 87.0556 41.0568H87.276V41.4706H84.4654V41.0568H84.7485C84.9773 41.0568 85.1305 41.0368 85.2082 40.9968C85.2879 40.9545 85.3277 40.8577 85.3277 40.7059V33.3318C85.3277 33.0559 85.314 32.8789 85.2867 32.8009C85.2615 32.723 85.2061 32.6842 85.12 32.6842C85.0338 32.6842 84.781 32.7274 84.3614 32.8136L84.3362 32.3745Z" fill="black"/>
<path d="M88.7146 37.3698C88.7146 37.058 88.6651 36.9021 88.5666 36.9021C88.5118 36.9021 88.239 36.9495 87.7482 37.0442L87.7104 36.643C87.7837 36.6283 87.8646 36.6136 87.9528 36.5989C88.041 36.5818 88.1048 36.5704 88.1447 36.5639C88.1845 36.5557 88.2622 36.5386 88.3776 36.5136C88.4951 36.486 88.6452 36.4504 88.8277 36.406C89.0123 36.3598 89.2675 36.2966 89.5927 36.2166V37.6792C89.5927 37.671 89.6408 37.5845 89.7375 37.4204C89.8339 37.256 89.9262 37.1168 90.0144 37.0033C90.1046 36.8874 90.1969 36.7821 90.2913 36.6871C90.5096 36.4683 90.7364 36.3586 90.9714 36.3586C91.2231 36.3586 91.4276 36.428 91.5849 36.5671C91.6125 36.5904 91.6438 36.6283 91.6796 36.681L91.1917 37.9636L90.984 37.8848V37.7171C90.984 37.5192 90.8811 37.4204 90.6754 37.4204C90.5348 37.4204 90.3827 37.4613 90.2189 37.5433C90.0575 37.6236 89.9168 37.7363 89.7973 37.8816C89.6777 38.0268 89.6179 38.1795 89.6179 38.3395V40.526C89.6179 40.7704 89.6598 40.9189 89.7436 40.9716C89.8277 41.0283 90.0563 41.0568 90.4299 41.0568H90.984V41.4707H87.9024V41.0568H88.1479C88.4207 41.0568 88.574 41.0398 88.6074 41.0063C88.6411 40.9724 88.6663 40.9324 88.683 40.8863C88.704 40.8292 88.7146 40.7092 88.7146 40.526V37.3698Z" fill="black"/>
<path d="M92.4757 43.698L92.8504 43.7232C92.9867 43.7232 93.1631 43.5759 93.379 43.2809C93.5952 42.9882 93.8921 42.4753 94.2701 41.7424L94.6571 40.9903L93.0456 37.5118C93.0224 37.4591 92.9919 37.3927 92.9541 37.3127C92.9187 37.2327 92.8955 37.1791 92.885 37.1515C92.8744 37.1221 92.8536 37.0832 92.822 37.0347C92.7927 36.9841 92.7728 36.9535 92.7622 36.943C92.7517 36.9303 92.7285 36.9115 92.6931 36.8862C92.6573 36.8588 92.628 36.8441 92.6049 36.8421C92.5817 36.8377 92.5431 36.8315 92.4883 36.823C92.4358 36.8147 92.3857 36.8103 92.3374 36.8103H92.1422L92.117 36.3965H94.5783L94.5531 36.8103H94.3328C94.1672 36.8103 94.0506 36.8221 93.9835 36.845C93.9164 36.8662 93.8827 36.903 93.8827 36.9556C93.8827 37.0082 93.888 37.0559 93.8985 37.098C93.9111 37.138 93.9225 37.1727 93.9331 37.2021C93.9457 37.2318 93.9636 37.2747 93.9867 37.3318C94.0119 37.3865 94.0286 37.4244 94.0371 37.4453L95.1324 39.9162L95.9443 38.0806C96.2277 37.453 96.3695 37.0959 96.3695 37.0094C96.3695 36.9209 96.3293 36.8662 96.2496 36.845C96.1699 36.8221 96.0211 36.8103 95.8028 36.8103H95.6235V36.3965H97.7229V36.8103H97.4143C97.2969 36.8103 97.2192 36.8168 97.1814 36.8294C97.1436 36.84 97.1143 36.8474 97.0932 36.8515C97.0745 36.8556 97.0525 36.8715 97.0273 36.8988C97.0021 36.9262 96.983 36.9462 96.9704 36.9588C96.9602 36.9715 96.9423 37.0021 96.9171 37.0506C96.894 37.0988 96.8761 37.1368 96.8635 37.1641C96.8175 37.2759 96.7691 37.3877 96.7187 37.4991L94.7579 41.8465C93.9709 43.5885 93.3562 44.5541 92.9134 44.7438C92.7936 44.7965 92.6562 44.8227 92.5009 44.8227C92.3456 44.8227 92.2207 44.7671 92.1264 44.6553C92.0341 44.5459 91.9878 44.4035 91.9878 44.2288C91.9878 44.0541 92.0329 43.9212 92.1232 43.8306C92.2134 43.7424 92.3309 43.698 92.4757 43.698Z" fill="black"/>
<path d="M54.292 7.92098C54.1177 7.92098 53.883 7.76415 53.5873 7.45051C53.2958 7.13686 53.1501 6.88354 53.1501 6.69051C53.1501 6.49751 53.3122 6.26024 53.636 5.97877C53.9597 5.69327 54.2149 5.55054 54.4013 5.55054C54.5915 5.55054 54.8244 5.71339 55.0995 6.0391C55.375 6.3648 55.5127 6.62215 55.5127 6.81115C55.5127 6.99613 55.3527 7.22733 55.0327 7.5048C54.7169 7.78224 54.4699 7.92098 54.292 7.92098Z" fill="black"/>
<path d="M54.4872 6.798C54.4262 6.798 54.3439 6.743 54.2402 6.63303C54.1379 6.52306 54.0869 6.43424 54.0869 6.36653C54.0869 6.29886 54.1435 6.21568 54.2572 6.11697C54.3708 6.01686 54.4602 5.9668 54.5256 5.9668C54.5924 5.9668 54.6738 6.02391 54.7705 6.13812C54.8669 6.25233 54.9153 6.34256 54.9153 6.40886C54.9153 6.47371 54.859 6.55477 54.7471 6.65206C54.6363 6.74936 54.5496 6.798 54.4872 6.798Z" fill="black"/>
<path d="M55.1172 7.05779C55.099 7.05779 55.0747 7.04152 55.044 7.00894C55.0138 6.97635 54.9985 6.95002 54.9985 6.92996C54.9985 6.90991 55.0152 6.88526 55.0489 6.85602C55.0826 6.82635 55.109 6.81152 55.1283 6.81152C55.1483 6.81152 55.1723 6.82844 55.201 6.86229C55.2297 6.89611 55.2441 6.92285 55.2441 6.94249C55.2441 6.9617 55.2274 6.98573 55.194 7.01455C55.1612 7.04338 55.1357 7.05779 55.1172 7.05779Z" fill="black"/>
<path d="M53.5872 7.45053L53.4802 7.55086L53.4808 7.55159L53.5872 7.45053ZM53.6358 5.9788L53.7316 6.08997L53.7325 6.0893L53.6358 5.9788ZM55.0326 7.50483L54.9368 7.39356L54.9362 7.39418L55.0326 7.50483ZM54.24 6.63289L54.1328 6.73321L54.1336 6.73395L54.24 6.63289ZM54.257 6.11683L54.3528 6.228L54.3537 6.22733L54.257 6.11683ZM54.7469 6.65192L54.6511 6.54065L54.6502 6.54127L54.7469 6.65192ZM55.0437 7.00883L54.9365 7.10912L54.9374 7.10986L55.0437 7.00883ZM55.0487 6.85592L55.1445 6.96709L55.1454 6.96642L55.0487 6.85592ZM55.1937 7.01444L55.0979 6.90318L55.0973 6.9038L55.1937 7.01444ZM54.2001 10.8823L54.1108 10.9989L54.1503 11.0293H54.2001V10.8823ZM48.2596 6.29774L48.1542 6.39989L48.1618 6.40771L48.1703 6.41433L48.2596 6.29774ZM48.2596 5.68645L48.3619 5.7915L48.4457 5.7093L48.3842 5.6093L48.2596 5.68645ZM48.4413 4.83068L48.492 4.96868L48.6124 4.92424L48.5843 4.79862L48.4413 4.83068ZM49.0476 3.60812L49.073 3.75295L49.2143 3.72797L49.1923 3.58565L49.0476 3.60812ZM49.9568 2.6301L49.9573 2.77715L50.1068 2.77647L50.1033 2.62668L49.9568 2.6301ZM51.1086 1.46868L51.1077 1.61574L51.2067 1.61628L51.2443 1.52432L51.1086 1.46868ZM52.8057 0.85741L52.7521 0.994172L52.8415 1.02967L52.9094 0.961363L52.8057 0.85741ZM55.17 0.735154L55.1038 0.866448L55.1636 0.896616L55.2251 0.871313L55.17 0.735154ZM57.1704 1.2853L57.0596 1.38182L57.1056 1.43492L57.1757 1.43225L57.1704 1.2853ZM58.4432 2.20221L58.2985 2.22465L58.3169 2.34542L58.4385 2.3492L58.4432 2.20221ZM59.5951 3.42474L59.4486 3.42377L59.4477 3.52168L59.5376 3.56003L59.5951 3.42474ZM60.1406 4.83068L60.0021 4.78274L59.9511 4.931L60.1017 4.9725L60.1406 4.83068ZM60.6256 5.56421L60.7229 5.67395L60.7577 5.64289L60.7683 5.59745L60.6256 5.56421ZM54.6848 10.8823V11.0293H54.7408L54.7824 10.992L54.6848 10.8823ZM54.2919 7.77394C54.2464 7.77394 54.1732 7.75236 54.0662 7.68094C53.9613 7.611 53.8374 7.50197 53.6935 7.34947L53.4808 7.55159C53.6326 7.71274 53.7738 7.83897 53.9039 7.92583C54.0317 8.01124 54.1629 8.06806 54.2919 8.06806V7.77394ZM53.6944 7.35021C53.5529 7.19815 53.4515 7.06544 53.3862 6.95177C53.3199 6.83683 53.2965 6.75124 53.2965 6.69053H53.0035C53.0035 6.82286 53.0527 6.96044 53.1324 7.09886C53.2127 7.2385 53.3299 7.3893 53.4802 7.55086L53.6944 7.35021ZM53.2965 6.69053C53.2965 6.63497 53.3202 6.55645 53.3923 6.45097C53.4635 6.3465 53.5752 6.22612 53.7316 6.08997L53.54 5.86762C53.3727 6.01297 53.2411 6.15195 53.1506 6.28471C53.0606 6.4165 53.0035 6.55309 53.0035 6.69053H53.2965ZM53.7325 6.0893C53.8898 5.9505 54.0261 5.85059 54.1413 5.78606C54.2585 5.72059 54.3431 5.69762 54.4012 5.69762V5.4035C54.2725 5.4035 54.1369 5.45189 53.9986 5.52918C53.8591 5.60739 53.7055 5.72159 53.5391 5.8683L53.7325 6.0893ZM54.4012 5.69762C54.4548 5.69762 54.5313 5.72112 54.6347 5.79336C54.7369 5.86489 54.8547 5.97677 54.9878 6.13427L55.211 5.94397C55.0689 5.77574 54.9327 5.64336 54.802 5.55203C54.6725 5.46139 54.5374 5.4035 54.4012 5.4035V5.69762ZM54.9878 6.13427C55.1214 6.2925 55.2178 6.42956 55.2802 6.54597C55.3432 6.66389 55.366 6.75068 55.366 6.81118H55.659C55.659 6.68268 55.6128 6.5463 55.5383 6.40686C55.463 6.26594 55.3529 6.11145 55.211 5.94397L54.9878 6.13427ZM55.366 6.81118C55.366 6.86177 55.3435 6.93642 55.2723 7.03945C55.2017 7.14121 55.0918 7.25927 54.9368 7.39356L55.1284 7.61609C55.2934 7.47295 55.4232 7.33665 55.5128 7.20718C55.6016 7.079 55.659 6.94556 55.659 6.81118H55.366ZM54.9362 7.39418C54.7827 7.52906 54.6505 7.62603 54.5389 7.68862C54.4258 7.75224 54.3452 7.77394 54.2919 7.77394V8.06806C54.4164 8.06806 54.5482 8.02042 54.6821 7.9453C54.8175 7.86915 54.967 7.75806 55.129 7.61547L54.9362 7.39418ZM54.487 6.6508C54.4981 6.6508 54.4914 6.65468 54.4606 6.63418C54.4322 6.61515 54.3941 6.5825 54.3464 6.53183L54.1336 6.73395C54.1893 6.79327 54.2444 6.84309 54.2983 6.87906C54.3499 6.91356 54.4146 6.94492 54.487 6.94492V6.6508ZM54.3472 6.53256C54.3004 6.48233 54.2699 6.44168 54.2517 6.41024C54.233 6.37756 54.2333 6.36442 54.2333 6.36639H53.9402C53.9402 6.43606 53.9657 6.50118 53.998 6.55733C54.0311 6.61471 54.0774 6.67347 54.1328 6.73321L54.3472 6.53256ZM54.2333 6.36639C54.2333 6.37347 54.2306 6.3648 54.25 6.33636C54.2687 6.30892 54.3015 6.27277 54.3528 6.228L54.1612 6.00565C54.0991 6.05959 54.0463 6.11439 54.0085 6.17012C53.971 6.22489 53.9402 6.29162 53.9402 6.36639H54.2333ZM54.3537 6.22733C54.4061 6.18121 54.448 6.15083 54.4806 6.13265C54.5148 6.11353 54.528 6.11371 54.5254 6.11371V5.81959C54.4574 5.81959 54.3932 5.8448 54.3379 5.87577C54.281 5.90762 54.2215 5.95233 54.1603 6.00633L54.3537 6.22733ZM54.5254 6.11371C54.5175 6.11371 54.5251 6.1108 54.5529 6.13015C54.5796 6.1488 54.6148 6.18139 54.6584 6.23312L54.882 6.04283C54.8292 5.98036 54.7753 5.9273 54.7202 5.88883C54.6663 5.85106 54.6001 5.81959 54.5254 5.81959V6.11371ZM54.6584 6.23312C54.703 6.28559 54.7323 6.328 54.7498 6.36089C54.768 6.39521 54.7686 6.40956 54.7686 6.40871H55.0616C55.0616 6.34156 55.0379 6.27765 55.008 6.22174C54.9772 6.16439 54.9341 6.10456 54.882 6.04283L54.6584 6.23312ZM54.7686 6.40871C54.7686 6.39924 54.7721 6.40633 54.7528 6.43427C54.7343 6.46097 54.7021 6.49645 54.6511 6.54065L54.8427 6.76318C54.9037 6.71012 54.9558 6.65642 54.9933 6.60203C55.03 6.54889 55.0616 6.483 55.0616 6.40871H54.7686ZM54.6502 6.54127C54.5992 6.58606 54.5585 6.6155 54.5271 6.63303C54.4943 6.65162 54.4826 6.6508 54.487 6.6508V6.94492C54.5538 6.94492 54.6168 6.9198 54.6704 6.88971C54.7258 6.85862 54.7835 6.81506 54.8433 6.76259L54.6502 6.54127ZM55.117 6.91062C55.1343 6.91062 55.1472 6.91447 55.1545 6.91727C55.1618 6.92003 55.1656 6.92271 55.1662 6.92303C55.1668 6.92347 55.1656 6.92274 55.1627 6.92C55.1595 6.91733 55.1554 6.91336 55.1501 6.90777L54.9374 7.10986C54.9567 7.1305 54.979 7.1513 55.0039 7.16792C55.0264 7.18306 55.066 7.20474 55.117 7.20474V6.91062ZM55.1507 6.9085C55.1457 6.90303 55.1422 6.89871 55.1395 6.89553C55.1372 6.89227 55.1363 6.89083 55.1366 6.89109C55.1366 6.89124 55.1384 6.89439 55.1404 6.90027C55.1422 6.90615 55.1448 6.91636 55.1448 6.92986H54.8518C54.8518 6.97571 54.8685 7.0133 54.8829 7.03818C54.8978 7.06433 54.9171 7.08809 54.9365 7.10912L55.1507 6.9085ZM55.1448 6.92986C55.1448 6.94565 55.1413 6.958 55.1384 6.96592C55.1354 6.97368 55.1325 6.97821 55.1316 6.97944C55.1305 6.98127 55.1331 6.97712 55.1445 6.96709L54.9529 6.74474C54.9306 6.76395 54.9081 6.78674 54.8899 6.81321C54.8726 6.83868 54.8518 6.87889 54.8518 6.92986H55.1448ZM55.1454 6.96642C55.1513 6.96124 55.1559 6.95747 55.1595 6.95483C55.1633 6.95215 55.165 6.95106 55.1653 6.95097C55.1653 6.95083 55.1627 6.95242 55.1574 6.95415C55.1518 6.95592 55.1419 6.95847 55.1281 6.95847V6.66436C55.0833 6.66436 55.0464 6.68077 55.0226 6.69409C54.9971 6.70836 54.9734 6.72662 54.952 6.74542L55.1454 6.96642ZM55.1281 6.95847C55.1123 6.95847 55.0997 6.95503 55.0915 6.95189C55.0836 6.94883 55.0789 6.94571 55.0774 6.94477C55.0754 6.94333 55.0795 6.94577 55.0891 6.95733L55.3124 6.76703C55.2937 6.74474 55.2711 6.7218 55.245 6.70344C55.2198 6.68577 55.1794 6.66436 55.1281 6.66436V6.95847ZM55.0891 6.95733C55.0941 6.96318 55.0976 6.96786 55.1003 6.97145C55.1026 6.97506 55.1038 6.97694 55.1038 6.97718C55.1041 6.9775 55.1026 6.97495 55.1012 6.96983C55.0994 6.96471 55.0973 6.95521 55.0973 6.94239H55.3904C55.3904 6.89859 55.3751 6.86218 55.3619 6.83803C55.3485 6.81245 55.3306 6.78856 55.3124 6.76703L55.0891 6.95733ZM55.0973 6.94239C55.0973 6.9258 55.1009 6.91289 55.1038 6.90477C55.107 6.89686 55.1099 6.89218 55.1108 6.89095C55.1123 6.88909 55.1097 6.89321 55.0979 6.90318L55.2896 7.12571C55.3112 7.10689 55.3338 7.08456 55.3517 7.05868C55.3687 7.03409 55.3904 6.99389 55.3904 6.94239H55.0973ZM55.0973 6.9038C55.0918 6.9088 55.0871 6.91245 55.0836 6.91497C55.0821 6.91621 55.0806 6.91712 55.0798 6.91771C55.0789 6.91833 55.0783 6.91856 55.0786 6.91856C55.0786 6.91853 55.0792 6.91815 55.0804 6.91756C55.0818 6.91697 55.0839 6.91609 55.0868 6.91515C55.0924 6.91333 55.1029 6.91062 55.117 6.91062V7.20474C55.1618 7.20474 55.1984 7.18818 55.2216 7.17521C55.2465 7.16124 55.2696 7.14336 55.2904 7.12512L55.0973 6.9038ZM54.2892 10.7657L48.3487 6.18115L48.1703 6.41433L54.1108 10.9989L54.2892 10.7657ZM48.3648 6.19556C48.2506 6.07659 48.2295 6.02024 48.2289 5.98939C48.2283 5.96218 48.2441 5.90753 48.3619 5.7915L48.1571 5.58142C48.0326 5.70377 47.9332 5.83527 47.9359 5.9943C47.9385 6.14974 48.0387 6.27983 48.1542 6.39989L48.3648 6.19556ZM48.3842 5.6093C48.3159 5.49824 48.2661 5.40853 48.235 5.3333C48.2037 5.25733 48.1972 5.20944 48.201 5.17833C48.2063 5.13547 48.2412 5.06124 48.492 4.96868L48.3909 4.69265C48.1313 4.78842 47.9376 4.91733 47.9104 5.14292C47.8978 5.246 47.9244 5.34865 47.9643 5.44586C48.0047 5.5438 48.0651 5.64992 48.1348 5.76362L48.3842 5.6093ZM48.5843 4.79862C48.543 4.61342 48.5151 4.4608 48.5064 4.33303C48.4973 4.20509 48.5084 4.11309 48.536 4.04409C48.5846 3.92206 48.71 3.81718 49.073 3.75295L49.0221 3.4633C48.6324 3.53227 48.3716 3.6653 48.264 3.93453C48.2133 4.06121 48.2034 4.20321 48.2139 4.35368C48.2245 4.50433 48.2564 4.67456 48.2983 4.86274L48.5843 4.79862ZM49.1923 3.58565C49.1346 3.21115 49.1674 3.03447 49.2532 2.93982C49.2963 2.89255 49.3652 2.85138 49.4809 2.82223C49.5978 2.79283 49.7531 2.77809 49.9573 2.77715L49.9562 2.48304C49.742 2.48402 49.5597 2.4992 49.4097 2.53693C49.2588 2.57492 49.1311 2.63809 49.037 2.74155C48.8489 2.94839 48.8454 3.25883 48.9028 3.63059L49.1923 3.58565ZM50.1033 2.62668C50.0933 2.19319 50.1425 1.95853 50.2674 1.82317C50.3898 1.69011 50.624 1.61308 51.1077 1.61574L51.1095 1.32162C50.6187 1.31893 50.2668 1.39052 50.0523 1.62346C49.8396 1.8541 49.8003 2.20283 49.8103 2.63351L50.1033 2.62668ZM51.2443 1.52432C51.4224 1.08671 51.5882 0.894751 51.784 0.827928C51.9891 0.758022 52.2768 0.805648 52.7521 0.994172L52.8596 0.720648C52.3858 0.532643 52.0058 0.44169 51.6899 0.549442C51.3647 0.660278 51.1563 0.962219 50.9729 1.41305L51.2443 1.52432ZM52.9094 0.961363C53.3112 0.55794 53.6191 0.431401 53.9276 0.441663C54.2529 0.452498 54.6054 0.614054 55.1038 0.866448L55.2359 0.60386C54.7507 0.358125 54.339 0.16108 53.9373 0.147708C53.5183 0.133765 53.1362 0.317419 52.7023 0.753457L52.9094 0.961363ZM55.2251 0.871313C55.623 0.708425 55.8979 0.644722 56.1563 0.70389C56.4153 0.76321 56.6887 0.953601 57.0596 1.38182L57.2809 1.18878C56.8979 0.747016 56.5732 0.49771 56.2213 0.417143C55.8688 0.336425 55.5207 0.43264 55.1146 0.598995L55.2251 0.871313ZM57.1757 1.43225C57.3547 1.42545 57.4968 1.41357 57.6307 1.41519C57.7611 1.41676 57.8593 1.43183 57.9381 1.46862C58.0808 1.53537 58.2185 1.70407 58.2985 2.22465L58.588 2.17977C58.5045 1.63694 58.3448 1.33429 58.0617 1.20198C57.9275 1.13924 57.7804 1.12286 57.6342 1.12109C57.4912 1.11936 57.3254 1.13224 57.1648 1.13835L57.1757 1.43225ZM58.4385 2.3492C58.8628 2.36237 59.0984 2.42071 59.237 2.55549C59.3733 2.68797 59.4518 2.93095 59.4486 3.42377L59.7416 3.42571C59.7448 2.9226 59.6707 2.56745 59.4409 2.34422C59.2136 2.1233 58.8702 2.06835 58.4476 2.05522L58.4385 2.3492ZM59.5376 3.56003C59.8778 3.7055 60.0334 3.83586 60.0949 3.99124C60.1579 4.15159 60.1392 4.38333 60.0021 4.78274L60.279 4.87862C60.4181 4.47362 60.4726 4.15045 60.3671 3.88295C60.2599 3.61047 60.0047 3.44009 59.6525 3.28945L59.5376 3.56003ZM60.1017 4.9725C60.3305 5.03547 60.4278 5.11674 60.47 5.19115C60.5125 5.26636 60.5198 5.37097 60.4826 5.53097L60.7683 5.59745C60.8111 5.4115 60.8216 5.21703 60.7246 5.04577C60.627 4.87371 60.4419 4.76118 60.1793 4.68886L60.1017 4.9725ZM60.528 5.45445L54.5875 10.7725L54.7824 10.992L60.7229 5.67395L60.528 5.45445ZM54.6848 10.7352H54.2001V11.0293H54.6848V10.7352ZM48.9356 5.38539L50.8739 6.82924L51.0485 6.59306L49.1103 5.14921L48.9356 5.38539ZM49.5706 4.25324L51.5088 6.01795L51.7057 5.80006L49.7675 4.03536L49.5706 4.25324ZM50.5302 3.28124L52.1456 5.04595L52.3615 4.84695L50.7461 3.08224L50.5302 3.28124ZM51.6509 2.46669L52.9431 4.23139L53.1793 4.05721L51.8868 2.2925L51.6509 2.46669ZM52.9212 1.78155L53.5672 3.86712L53.8471 3.77977L53.201 1.69421L52.9212 1.78155ZM54.855 1.71346L54.5321 3.63859L54.821 3.68745L55.1439 1.76231L54.855 1.71346ZM56.4865 1.98774L55.5172 3.75245L55.7739 3.89445L56.7432 2.12974L56.4865 1.98774ZM57.7986 2.76192L56.345 4.36621L56.5618 4.56412L58.0154 2.95983L57.7986 2.76192ZM58.7855 3.86856L57.1701 5.15197L57.3518 5.38259L58.9671 4.09918L58.7855 3.86856ZM59.2801 5.14453L57.8264 6.10709L57.9879 6.35262L59.4415 5.39006L59.2801 5.14453ZM54.5148 11.0293H56.7763V10.7352H54.5148V11.0293ZM54.1919 10.7352H51.9305V11.0293H54.1919V10.7352Z" fill="black"/>
</g>
<defs>
<clipPath id="clip0_123_10573">
<rect width="109" height="45" fill="white"/>
</clipPath>
</defs>
</svg>
