<svg width="155" height="64" viewBox="0 0 155 64" fill="none" xmlns="http://www.w3.org/2000/svg">
<g clip-path="url(#clip0_123_10766)">
<path d="M0.0361328 19.5445L0.0674641 18.2549H8.27627V19.5445H6.83506C6.23973 19.5445 5.8951 19.5865 5.8011 19.6703C5.7071 19.749 5.63402 19.8328 5.58177 19.922C5.49823 20.0635 5.45648 20.3335 5.45648 20.7319V37.0016C5.45648 37.6779 5.5896 38.071 5.85594 38.1811C5.99694 38.2336 6.21623 38.2598 6.5139 38.2598C11.9186 38.2283 14.7645 38.0684 15.0517 37.7801C15.2136 37.6176 15.3337 37.3476 15.412 36.9702C15.4904 36.5927 15.553 36.2782 15.6 36.0266C15.6522 35.7749 15.6992 35.5207 15.741 35.2638C15.788 35.0016 15.8454 34.6792 15.9133 34.2965L17.0334 34.3595L15.976 39.7381H0.482604L0.451275 38.48H1.35205C2.08312 38.48 2.49565 38.4354 2.58964 38.3463C2.68886 38.2519 2.74891 38.1838 2.7698 38.1418C2.79068 38.0999 2.80896 38.0265 2.82462 37.9217C2.84551 37.7801 2.85596 37.5599 2.85596 37.2611V20.6061C2.85596 20.1448 2.74107 19.8538 2.51131 19.7332C2.28155 19.6074 1.82985 19.5445 1.15623 19.5445H0.0361328Z" fill="black"/>
<path d="M25.5711 38.2598C29.8478 38.2179 32.3935 38.1628 33.2081 38.0946C34.028 38.0265 34.4953 37.9348 34.6102 37.8194C34.7251 37.7041 34.8113 37.5626 34.8687 37.3948C34.9313 37.2218 35.1037 36.286 35.3857 34.5875L36.4823 34.7448L35.6755 39.7381H19.4145V38.48H20.2448C21.0437 38.48 21.5006 38.4406 21.6155 38.362C21.7356 38.2781 21.8192 38.1811 21.8662 38.071C21.9184 37.9348 21.9445 37.6648 21.9445 37.2611V20.9285C21.9445 20.2889 21.8296 19.8905 21.5998 19.7332C21.4014 19.6074 20.767 19.5445 19.6965 19.5445H18.8035L18.7722 18.2549H35.2917C35.323 20.1054 35.3778 21.7909 35.4562 23.3111L34.2029 23.374C34.1246 21.2561 33.9653 20.0688 33.7251 19.8119C33.652 19.7332 33.5293 19.6861 33.357 19.6703C33.1898 19.6494 32.6912 19.6389 31.8609 19.6389H26.4014C25.5189 19.6389 25.0176 19.6861 24.8975 19.7804C24.7774 19.8748 24.6912 19.9901 24.639 20.1264C24.5763 20.2837 24.545 20.6271 24.545 21.1565V25.6309C24.545 26.26 24.5763 26.6112 24.639 26.6846C24.7069 26.7528 24.7852 26.8052 24.874 26.8419C24.9889 26.8943 25.2317 26.9205 25.6024 26.9205H30.451C31.0149 26.9205 31.3387 26.8655 31.4223 26.7554C31.5058 26.6401 31.5633 26.5142 31.5946 26.3779C31.6416 26.1997 31.665 25.8432 31.665 25.3085V24.0818L32.8557 24.1132V31.8117H31.665V30.1367C31.665 29.2403 31.6207 28.737 31.5319 28.6269C31.4431 28.5168 31.3805 28.4513 31.3439 28.4303C31.3126 28.4041 31.2421 28.3832 31.1324 28.3674C31.028 28.3465 30.9418 28.336 30.874 28.336H25.6964C25.1638 28.336 24.8453 28.3884 24.7408 28.4932C24.6103 28.6348 24.545 28.9152 24.545 29.3347V36.9387C24.545 37.4944 24.6103 37.8535 24.7408 38.016C24.8714 38.1785 25.1481 38.2598 25.5711 38.2598Z" fill="black"/>
<path d="M39.8896 24.3577C39.8896 24.1481 40.0124 23.9698 40.2578 23.823C40.5032 23.671 40.7121 23.5268 40.8844 23.3905C41.0567 23.249 41.216 23.0996 41.3622 22.9423C41.7067 22.5806 41.8792 22.1848 41.8792 21.7549C41.8792 21.3198 41.8375 21.0105 41.7538 20.827C41.6754 20.6383 41.5763 20.4967 41.4562 20.4024C41.3361 20.308 41.2029 20.2241 41.0567 20.1507C40.9158 20.0774 40.7852 20.0223 40.6651 19.9856C40.3831 19.9017 40.2421 19.7864 40.2421 19.6396C40.2421 19.6134 40.2839 19.5164 40.3674 19.3486L41.1351 18.2242C41.3022 17.9673 41.4562 17.8389 41.5972 17.8389C41.7434 17.8389 42.0304 17.9699 42.4588 18.232C42.8871 18.4941 43.1479 18.6698 43.2421 18.7589C43.5659 19.0577 43.7409 19.5216 43.7671 20.1507V20.3473C43.7671 21.5111 43.3021 22.5649 42.3725 23.5085C41.9238 23.9593 41.5006 24.266 41.1037 24.4285C40.7121 24.5858 40.4119 24.6644 40.203 24.6644C39.9941 24.6644 39.8896 24.5622 39.8896 24.3577Z" fill="black"/>
<path d="M52.2654 39.7381V38.48H53.2604C53.7875 38.48 54.0958 38.4485 54.1845 38.3856C54.2733 38.3175 54.3308 38.2388 54.357 38.1497C54.3933 38.0501 54.4116 37.8483 54.4116 37.5442V20.7004C54.4116 20.1657 54.3462 19.8459 54.2158 19.7411C54.0437 19.6101 53.7016 19.5445 53.19 19.5445H52.3595L52.3908 18.2549H59.0016C61.195 18.2549 62.5945 18.3414 63.2 18.5144C64.2133 18.8027 65.0695 19.2326 65.7691 19.804C66.4691 20.3702 67.067 21.1408 67.5629 22.1159C68.0591 23.0857 68.307 24.1814 68.307 25.4028C68.307 27.3111 67.5108 28.8497 65.9183 30.0188C64.78 30.8523 63.3175 31.2691 61.5316 31.2691C60.1687 31.2691 58.7512 31.0673 57.2787 30.6636C57.1062 30.6164 57.0175 30.5928 57.012 30.5928V37.5442C57.012 37.995 57.1037 38.2545 57.2862 38.3227C57.5579 38.4276 58.1925 38.48 59.1895 38.48H60.7954V39.7381H52.2654ZM57.012 29.6256C57.5554 30.0345 58.6179 30.2389 60.2 30.2389C61.7825 30.2389 63.0254 29.8222 63.9287 28.9886C64.837 28.1551 65.2916 26.9389 65.2916 25.3399C65.2916 23.1591 64.2837 21.5445 62.2679 20.496C61.0512 19.8617 59.6204 19.5445 57.9758 19.5445C57.5995 19.5445 57.3595 19.6074 57.255 19.7332C57.0933 19.9324 57.012 20.3623 57.012 21.0229V29.6256Z" fill="black"/>
<path d="M77.3935 38.2598C81.6701 38.2179 84.216 38.1628 85.0306 38.0946C85.8501 38.0265 86.3176 37.9348 86.4326 37.8194C86.5472 37.7041 86.6335 37.5626 86.691 37.3948C86.7535 37.2218 86.926 36.286 87.2081 34.5875L88.3047 34.7448L87.4976 39.7381H71.2368V38.48H72.0672C72.866 38.48 73.3231 38.4406 73.4376 38.362C73.5581 38.2781 73.6414 38.1811 73.6885 38.071C73.7406 37.9348 73.7668 37.6648 73.7668 37.2611V20.9285C73.7668 20.2889 73.6518 19.8905 73.4222 19.7332C73.2239 19.6074 72.5893 19.5445 71.5189 19.5445H70.626L70.5947 18.2549H87.1139C87.1451 20.1054 87.2001 21.7909 87.2785 23.3111L86.0251 23.374C85.9468 21.2561 85.7876 20.0688 85.5472 19.8119C85.4743 19.7332 85.3518 19.6861 85.1793 19.6703C85.0122 19.6494 84.5135 19.6389 83.6831 19.6389H78.2239C77.3414 19.6389 76.8397 19.6861 76.7197 19.7804C76.5997 19.8748 76.5135 19.9901 76.4614 20.1264C76.3985 20.2837 76.3672 20.6271 76.3672 21.1566V25.6309C76.3672 26.26 76.3985 26.6112 76.4614 26.6846C76.5293 26.7528 76.6076 26.8052 76.6964 26.8419C76.8114 26.8943 77.0539 26.9205 77.4247 26.9205H82.2735C82.8372 26.9205 83.161 26.8655 83.2447 26.7554C83.3281 26.6401 83.3856 26.5142 83.4168 26.3779C83.4639 26.1997 83.4872 25.8432 83.4872 25.3085V24.0818L84.6781 24.1132V31.8117H83.4872V30.1367C83.4872 29.2403 83.4431 28.737 83.3543 28.6269C83.2656 28.5168 83.2026 28.4513 83.1664 28.4303C83.1347 28.4041 83.0643 28.3832 82.9547 28.3674C82.8501 28.3465 82.7643 28.336 82.6964 28.336H77.5189C76.986 28.336 76.6676 28.3884 76.5631 28.4933C76.4326 28.6348 76.3672 28.9152 76.3672 29.3347V36.9387C76.3672 37.4944 76.4326 37.8535 76.5631 38.016C76.6939 38.1785 76.9706 38.2598 77.3935 38.2598Z" fill="black"/>
<path d="M98.5733 29.8537C97.2625 29.8537 96.2887 29.7881 95.6516 29.657V37.5442C95.6516 37.9898 95.7508 38.2519 95.9491 38.3306C96.2 38.4302 96.8395 38.48 97.8683 38.48H99.5054L99.4429 39.7381H90.905V38.48H91.6412C92.3254 38.48 92.7116 38.4537 92.8004 38.4013C92.8891 38.3436 92.952 38.2703 92.9883 38.1811C93.0354 38.0868 93.0591 37.8745 93.0591 37.5442V20.7004C93.0591 20.1028 92.8162 19.749 92.3304 19.6389C92.0591 19.576 91.6595 19.5445 91.132 19.5445H90.2312L90.2625 18.2549H97.6412C99.3433 18.2549 100.67 18.365 101.62 18.5852C102.576 18.8001 103.425 19.2116 104.166 19.8197C104.912 20.4226 105.482 21.1198 105.873 21.9115C106.27 22.6978 106.469 23.3976 106.469 24.011C106.469 24.6244 106.419 25.1276 106.32 25.5208C106.226 25.914 106.064 26.3098 105.834 26.7082C105.61 27.1014 105.325 27.4631 104.98 27.7934C104.218 28.5221 103.184 29.0568 101.879 29.3975L108.035 37.615C108.328 37.9819 108.57 38.2179 108.764 38.3227C108.957 38.4276 109.176 38.48 109.422 38.48H110.8L110.863 39.7381H106.21L99.3408 29.8143L98.5733 29.8537ZM95.6516 28.5955C95.9075 28.8104 96.5941 28.9179 97.7116 28.9179C99.6541 28.9179 101.069 28.5823 101.957 27.9114C102.845 27.2403 103.289 26.1997 103.289 24.7895C103.289 23.2378 102.72 21.9822 101.581 21.0229C100.411 20.0373 98.7562 19.5445 96.615 19.5445C96.2391 19.5445 95.9987 19.6074 95.8945 19.7332C95.7325 19.9324 95.6516 20.3623 95.6516 21.0229V28.5955Z" fill="black"/>
<path d="M112.641 19.5445L112.672 18.2549H120.881V19.5445H119.44C118.844 19.5445 118.5 19.5865 118.406 19.6703C118.312 19.749 118.239 19.8328 118.187 19.922C118.103 20.0635 118.061 20.3335 118.061 20.7319V37.0016C118.061 37.6779 118.194 38.071 118.461 38.1811C118.602 38.2336 118.821 38.2598 119.119 38.2598C124.523 38.2283 127.369 38.0684 127.657 37.7801C127.818 37.6176 127.939 37.3476 128.017 36.9702C128.095 36.5927 128.158 36.2782 128.205 36.0266C128.257 35.7749 128.304 35.5207 128.346 35.2638C128.393 35.0016 128.45 34.6792 128.518 34.2965L129.638 34.3595L128.581 39.7381H113.087L113.056 38.48H113.957C114.688 38.48 115.1 38.4354 115.194 38.3463C115.294 38.2519 115.354 38.1838 115.374 38.1418C115.396 38.0999 115.414 38.0265 115.429 37.9217C115.45 37.7801 115.461 37.5599 115.461 37.2611V20.6061C115.461 20.1448 115.346 19.8538 115.116 19.7332C114.887 19.6074 114.435 19.5445 113.761 19.5445H112.641Z" fill="black"/>
<path d="M138.176 38.2598C142.453 38.2179 144.999 38.1628 145.813 38.0946C146.633 38.0265 147.1 37.9348 147.215 37.8194C147.33 37.7041 147.416 37.5626 147.474 37.3948C147.536 37.2218 147.709 36.286 147.991 34.5875L149.087 34.7448L148.28 39.7381H132.019V38.48H132.85C133.649 38.48 134.106 38.4406 134.22 38.362C134.341 38.2781 134.424 38.1811 134.471 38.071C134.523 37.9348 134.549 37.6648 134.549 37.2611V20.9285C134.549 20.2889 134.434 19.8905 134.205 19.7332C134.007 19.6074 133.372 19.5445 132.302 19.5445H131.409L131.377 18.2549H147.897C147.928 20.1054 147.983 21.7909 148.061 23.3111L146.808 23.374C146.729 21.2561 146.57 20.0688 146.33 19.8119C146.257 19.7332 146.134 19.6861 145.962 19.6703C145.795 19.6494 145.296 19.6389 144.466 19.6389H139.006C138.124 19.6389 137.622 19.6861 137.502 19.7804C137.382 19.8748 137.296 19.9901 137.244 20.1264C137.181 20.2837 137.15 20.6271 137.15 21.1565V25.6309C137.15 26.26 137.181 26.6112 137.244 26.6846C137.312 26.7528 137.39 26.8052 137.479 26.8419C137.594 26.8943 137.837 26.9205 138.207 26.9205H143.056C143.62 26.9205 143.944 26.8655 144.027 26.7554C144.111 26.6401 144.168 26.5142 144.199 26.3779C144.247 26.1997 144.27 25.8432 144.27 25.3085V24.0818L145.461 24.1132V31.8117H144.27V30.1367C144.27 29.2403 144.226 28.737 144.137 28.6269C144.048 28.5168 143.985 28.4513 143.949 28.4303C143.917 28.4041 143.847 28.3832 143.737 28.3674C143.633 28.3465 143.547 28.336 143.479 28.336H138.302C137.769 28.336 137.45 28.3884 137.346 28.4932C137.215 28.6348 137.15 28.9152 137.15 29.3347V36.9387C137.15 37.4944 137.215 37.8535 137.346 38.016C137.476 38.1785 137.753 38.2598 138.176 38.2598Z" fill="black"/>
<path d="M153.082 40.0611C152.858 40.0611 152.555 39.8566 152.173 39.4477C151.798 39.0388 151.61 38.7086 151.61 38.4569C151.61 38.2053 151.818 37.896 152.236 37.529C152.654 37.1568 152.983 36.9707 153.223 36.9707C153.468 36.9707 153.769 37.183 154.124 37.6077C154.479 38.0323 154.657 38.3678 154.657 38.6142C154.657 38.8554 154.45 39.1568 154.038 39.5185C153.63 39.8802 153.312 40.0611 153.082 40.0611Z" fill="black"/>
<path d="M88.6229 52.6627C88.5783 52.6029 88.5304 52.561 88.48 52.5372C88.4292 52.5129 88.38 52.5012 88.3321 52.5012C88.2875 52.5012 88.0054 52.5564 87.4862 52.6673L87.3967 52.1147C87.7637 52.0578 88.0829 51.9963 88.3546 51.9307C89.1362 51.7416 89.6779 51.6128 89.9792 51.5441V59.8658C89.9792 60.8576 89.9075 61.5315 89.7646 61.8879C89.6242 62.2476 89.4958 62.502 89.3796 62.6517C89.2629 62.8048 89.1571 62.9169 89.0617 62.9889C88.9662 63.0608 88.8962 63.1118 88.8512 63.1415C88.8096 63.1746 88.7246 63.2315 88.5962 63.3122C88.4679 63.3963 88.3412 63.4695 88.2158 63.5326C87.8817 63.7004 87.595 63.784 87.3562 63.784C87.1208 63.784 86.8896 63.7439 86.6625 63.6627C86.4358 63.582 86.2479 63.4845 86.0987 63.3708C85.9496 63.257 85.875 63.1298 85.875 62.9889C85.875 62.8479 85.9896 62.676 86.2196 62.4723C86.4462 62.2685 86.6254 62.1665 86.7567 62.1665C86.8879 62.1665 86.9996 62.2071 87.0921 62.2878C87.1846 62.3719 87.2712 62.463 87.3521 62.5622C87.5608 62.8257 87.7279 62.9575 87.8533 62.9575C88.4142 62.9575 88.6946 62.123 88.6946 60.4544V53.2558C88.6946 52.9174 88.6708 52.72 88.6229 52.6627ZM89.2096 48.8796C89.0812 48.8796 88.9258 48.7729 88.7437 48.5604C88.565 48.3446 88.4754 48.1693 88.4754 48.0346C88.4754 47.8999 88.5725 47.7397 88.7662 47.554C88.9604 47.3683 89.1154 47.2754 89.2317 47.2754C89.3512 47.2754 89.5137 47.3724 89.7196 47.5674C89.9283 47.7619 90.0329 47.9254 90.0329 48.0572C90.0329 48.186 89.9271 48.355 89.715 48.565C89.5062 48.7746 89.3375 48.8796 89.2096 48.8796Z" fill="black"/>
<path d="M93.4837 54.8193L93.4657 55.0799C93.4657 56.449 94.012 57.3475 95.1041 57.7758C95.4324 57.9047 95.7607 57.9691 96.0887 57.9691C96.417 57.9691 96.7049 57.939 96.9528 57.8792C97.2003 57.8193 97.4078 57.7474 97.5749 57.6637C97.7449 57.5767 97.897 57.4914 98.0312 57.4073C98.3624 57.2036 98.5566 57.102 98.6132 57.102C98.7237 57.102 98.7787 57.1572 98.7787 57.268C98.7787 57.3789 98.7282 57.5077 98.6266 57.6545C98.5253 57.8014 98.3728 57.9645 98.1699 58.1444C97.967 58.3209 97.7357 58.489 97.4762 58.6476C96.8616 59.0282 96.1841 59.2181 95.4441 59.2181C94.4387 59.2181 93.6362 58.8931 93.0362 58.2431C92.4037 57.5512 92.0874 56.6736 92.0874 55.6099C92.0874 54.4269 92.4007 53.4653 93.0274 52.7253C93.642 52.0004 94.4103 51.6377 95.3324 51.6377C96.3649 51.6377 97.2124 52.0543 97.8745 52.8872C98.2087 53.3063 98.3762 53.6748 98.3762 53.9923C98.3762 54.0793 98.3403 54.1467 98.2687 54.1948C98.1999 54.2425 98.1387 54.2663 98.0849 54.2663L93.4837 54.8193ZM93.5195 54.1768L96.6707 53.7723C96.5932 53.4996 96.4678 53.2511 96.2945 53.0265C96.1216 52.7985 95.9874 52.6429 95.892 52.5588C95.662 52.3614 95.3862 52.2622 95.0637 52.2622C94.7416 52.2622 94.4282 52.4346 94.1237 52.7792C93.8195 53.1206 93.6182 53.5866 93.5195 54.1768Z" fill="black"/>
<path d="M102.082 52.3522C101.715 52.3522 101.532 52.4572 101.532 52.6668C101.532 52.7596 101.593 52.9558 101.715 53.2553L103.42 57.2501L105.363 52.9993C105.25 52.7266 105.129 52.5517 105 52.4735C104.872 52.3928 104.675 52.3522 104.41 52.3522H103.729L103.693 51.7637H107.655V52.3522C107.105 52.3522 106.806 52.3836 106.755 52.4468C106.707 52.5066 106.683 52.5681 106.683 52.6308C106.683 52.694 106.739 52.8722 106.849 53.1658L108.554 57.2321L110.515 53.0713C110.613 52.8496 110.663 52.6923 110.663 52.5994C110.663 52.4346 110.394 52.3522 109.857 52.3522H109.378V51.7637H112.623L112.641 52.3522C112.274 52.3522 112.045 52.3719 111.956 52.4108C111.866 52.4497 111.788 52.4915 111.719 52.5367C111.588 52.6145 111.473 52.7567 111.374 52.9634L108.335 59.2948L107.928 59.2768L105.712 53.7903L103.237 59.3127L102.852 59.2948L100.305 53.3499C100.141 52.9663 100.026 52.7207 99.9604 52.6128C99.8979 52.5053 99.7996 52.4346 99.665 52.4016C99.5309 52.369 99.2429 52.3522 98.8013 52.3522V51.7637H102.65L102.633 52.3522H102.082Z" fill="black"/>
<path d="M114.055 54.8193L114.037 55.0799C114.037 56.449 114.583 57.3475 115.675 57.7758C116.004 57.9047 116.332 57.9691 116.66 57.9691C116.988 57.9691 117.276 57.939 117.524 57.8792C117.772 57.8193 117.979 57.7474 118.146 57.6637C118.316 57.5767 118.468 57.4914 118.602 57.4073C118.934 57.2036 119.128 57.102 119.185 57.102C119.295 57.102 119.35 57.1572 119.35 57.268C119.35 57.3789 119.3 57.5077 119.198 57.6545C119.097 57.8014 118.944 57.9645 118.741 58.1444C118.539 58.3209 118.307 58.489 118.047 58.6476C117.433 59.0282 116.756 59.2181 116.016 59.2181C115.01 59.2181 114.207 58.8931 113.607 58.2431C112.975 57.5512 112.659 56.6736 112.659 55.6099C112.659 54.4269 112.972 53.4653 113.599 52.7253C114.213 52.0004 114.982 51.6377 115.904 51.6377C116.936 51.6377 117.784 52.0543 118.446 52.8872C118.78 53.3063 118.947 53.6748 118.947 53.9923C118.947 54.0793 118.912 54.1467 118.84 54.1948C118.771 54.2425 118.71 54.2663 118.656 54.2663L114.055 54.8193ZM114.091 54.1768L117.242 53.7723C117.165 53.4996 117.039 53.2511 116.866 53.0265C116.693 52.7985 116.559 52.6429 116.463 52.5588C116.233 52.3614 115.957 52.2622 115.635 52.2622C115.313 52.2622 115 52.4346 114.695 52.7792C114.391 53.1206 114.19 53.5866 114.091 54.1768Z" fill="black"/>
<path d="M119.927 46.0439C120.969 45.9 121.867 45.7577 122.622 45.6172V57.8931C122.622 58.1148 122.692 58.254 122.832 58.3109C122.972 58.3649 123.293 58.3921 123.795 58.3921H124.108V58.9806H120.111V58.3921H120.514C120.839 58.3921 121.057 58.3636 121.167 58.3068C121.281 58.2465 121.337 58.1089 121.337 57.8931V47.4054C121.337 47.0131 121.318 46.7612 121.279 46.6504C121.243 46.5395 121.165 46.4843 121.042 46.4843C120.92 46.4843 120.56 46.5458 119.963 46.6684L119.927 46.0439Z" fill="black"/>
<path d="M126.154 53.148C126.154 52.7046 126.083 52.4829 125.943 52.4829C125.865 52.4829 125.477 52.5502 124.78 52.6849L124.726 52.1143C124.83 52.0934 124.945 52.0725 125.07 52.0516C125.196 52.0273 125.287 52.011 125.343 52.0018C125.4 51.9901 125.51 51.9659 125.675 51.9303C125.842 51.891 126.055 51.8404 126.315 51.7772C126.577 51.7115 126.94 51.6216 127.402 51.5078V53.588C127.402 53.5763 127.471 53.4533 127.608 53.2199C127.745 52.9861 127.877 52.7882 128.002 52.6268C128.13 52.462 128.262 52.3122 128.396 52.1771C128.706 51.8659 129.029 51.7099 129.363 51.7099C129.721 51.7099 130.012 51.8086 130.235 52.0064C130.275 52.0395 130.319 52.0934 130.37 52.1683L129.676 53.9925L129.381 53.8804V53.642C129.381 53.3605 129.235 53.2199 128.942 53.2199C128.742 53.2199 128.526 53.2781 128.293 53.3948C128.063 53.509 127.863 53.6692 127.693 53.8758C127.523 54.0825 127.438 54.2996 127.438 54.5271V57.6368C127.438 57.9844 127.498 58.1956 127.617 58.2705C127.737 58.3512 128.062 58.3918 128.593 58.3918H129.381V58.9803H124.999V58.3918H125.348C125.736 58.3918 125.954 58.3675 126.001 58.3198C126.049 58.2717 126.085 58.2148 126.109 58.1492C126.139 58.068 126.154 57.8974 126.154 57.6368V53.148Z" fill="black"/>
<path d="M131.502 62.148L132.035 62.184C132.229 62.184 132.48 61.9744 132.787 61.5548C133.094 61.1386 133.516 60.4091 134.054 59.3667L134.604 58.2971L132.313 53.3499C132.28 53.275 132.236 53.1805 132.183 53.0667C132.132 52.9529 132.099 52.8768 132.084 52.8375C132.069 52.7956 132.04 52.7404 131.995 52.6714C131.953 52.5994 131.925 52.5559 131.91 52.5409C131.895 52.5229 131.862 52.4961 131.811 52.4601C131.76 52.4212 131.719 52.4003 131.686 52.3974C131.653 52.3911 131.598 52.3823 131.52 52.3702C131.445 52.3585 131.374 52.3522 131.305 52.3522H131.028L130.992 51.7637H134.492L134.456 52.3522H134.143C133.908 52.3522 133.742 52.369 133.646 52.4016C133.551 52.4317 133.503 52.484 133.503 52.5589C133.503 52.6337 133.51 52.7015 133.525 52.7613C133.543 52.8182 133.56 52.8676 133.575 52.9094C133.593 52.9516 133.618 53.0127 133.651 53.0939C133.687 53.1717 133.71 53.2256 133.723 53.2553L135.28 56.7695L136.435 54.1589C136.838 53.2662 137.039 52.7584 137.039 52.6354C137.039 52.5095 136.982 52.4317 136.869 52.4016C136.755 52.369 136.544 52.3522 136.233 52.3522H135.978V51.7637H138.964V52.3522H138.525C138.358 52.3522 138.248 52.3614 138.194 52.3794C138.14 52.3945 138.098 52.4049 138.068 52.4108C138.042 52.4166 138.01 52.4392 137.975 52.4781C137.939 52.517 137.912 52.5455 137.894 52.5635C137.879 52.5815 137.854 52.625 137.818 52.694C137.785 52.7626 137.76 52.8165 137.742 52.8554C137.676 53.0144 137.608 53.1733 137.536 53.3319L134.748 59.5148C133.628 61.9924 132.754 63.3657 132.125 63.6355C131.954 63.7103 131.759 63.7476 131.538 63.7476C131.317 63.7476 131.14 63.6685 131.005 63.5096C130.874 63.3539 130.808 63.1515 130.808 62.903C130.808 62.6545 130.873 62.4655 131.001 62.3366C131.129 62.2111 131.296 62.148 131.502 62.148Z" fill="black"/>
<path d="M77.2043 11.2658C76.9564 11.2658 76.6226 11.0428 76.2022 10.5967C75.7876 10.1506 75.5806 9.79035 75.5806 9.51582C75.5806 9.24133 75.811 8.90389 76.2714 8.50358C76.7318 8.09753 77.0947 7.89453 77.3597 7.89453C77.6301 7.89453 77.9614 8.12614 78.3526 8.58937C78.7443 9.0526 78.9401 9.41861 78.9401 9.68741C78.9401 9.95048 78.7126 10.2793 78.2576 10.6739C77.8085 11.0685 77.4572 11.2658 77.2043 11.2658Z" fill="black"/>
<path d="M77.4818 9.66849C77.3951 9.66849 77.278 9.59027 77.1305 9.43386C76.9851 9.27746 76.9126 9.15113 76.9126 9.05484C76.9126 8.95859 76.993 8.84029 77.1547 8.69991C77.3164 8.55752 77.4434 8.48633 77.5364 8.48633C77.6314 8.48633 77.7472 8.56756 77.8847 8.72999C78.0218 8.89241 78.0905 9.02075 78.0905 9.11503C78.0905 9.20727 78.0105 9.32255 77.8514 9.46093C77.6939 9.5993 77.5705 9.66849 77.4818 9.66849Z" fill="black"/>
<path d="M78.3775 10.0377C78.3517 10.0377 78.3171 10.0146 78.2733 9.96826C78.2304 9.92192 78.2087 9.88448 78.2087 9.85595C78.2087 9.82742 78.2325 9.79237 78.2804 9.75079C78.3283 9.70858 78.3658 9.6875 78.3933 9.6875C78.4217 9.6875 78.4558 9.71155 78.4967 9.7597C78.5375 9.8078 78.5579 9.84583 78.5579 9.87377C78.5579 9.90108 78.5342 9.93526 78.4867 9.97625C78.44 10.0172 78.4037 10.0377 78.3775 10.0377Z" fill="black"/>
<path d="M76.202 10.5963L76.0499 10.739L76.0507 10.74L76.202 10.5963ZM76.2711 8.50314L76.4074 8.66125L76.4086 8.66029L76.2711 8.50314ZM78.2574 10.6735L78.1211 10.5152L78.1203 10.5161L78.2574 10.6735ZM77.1303 9.4334L76.9778 9.57608L76.9791 9.57712L77.1303 9.4334ZM77.1545 8.69945L77.2907 8.85756L77.292 8.8566L77.1545 8.69945ZM77.8511 9.46046L77.7149 9.30222L77.7136 9.30309L77.8511 9.46046ZM78.2732 9.96807L78.1207 10.1107L78.122 10.1118L78.2732 9.96807ZM78.2803 9.75059L78.4166 9.90871L78.4178 9.90775L78.2803 9.75059ZM78.4866 9.97606L78.3503 9.81781L78.3495 9.81869L78.4866 9.97606ZM77.0736 15.477L76.9466 15.6428L77.0028 15.6861H77.0736V15.477ZM68.6261 8.95674L68.4761 9.10202L68.487 9.11314L68.4991 9.12256L68.6261 8.95674ZM68.6261 8.08735L68.7716 8.23676L68.8907 8.11985L68.8032 7.97763L68.6261 8.08735ZM68.8845 6.87026L68.9566 7.06652L69.1278 7.00332L69.0878 6.82466L68.8845 6.87026ZM69.7466 5.13151L69.7828 5.33748L69.9836 5.30197L69.9524 5.09955L69.7466 5.13151ZM71.0395 3.74054L71.0403 3.94969L71.2528 3.94872L71.2478 3.73568L71.0395 3.74054ZM72.6774 2.08875L72.6761 2.29789L72.817 2.29867L72.8703 2.16788L72.6774 2.08875ZM75.0907 1.21938L75.0145 1.41389L75.1416 1.46438L75.2382 1.36723L75.0907 1.21938ZM78.4528 1.04551L78.3586 1.23224L78.4436 1.27514L78.5311 1.23916L78.4528 1.04551ZM81.2974 1.82794L81.1399 1.96521L81.2053 2.04073L81.3049 2.03694L81.2974 1.82794ZM83.1074 3.13198L82.9016 3.1639L82.9278 3.33566L83.1007 3.34103L83.1074 3.13198ZM84.7453 4.8707L84.537 4.86932L84.5357 5.00857L84.6636 5.06312L84.7453 4.8707ZM85.5212 6.87026L85.3241 6.80208L85.2516 7.01294L85.4657 7.07196L85.5212 6.87026ZM86.2107 7.9135L86.3491 8.06957L86.3986 8.0254L86.4137 7.96077L86.2107 7.9135ZM77.7628 15.477V15.6861H77.8424L77.9016 15.6331L77.7628 15.477ZM77.2041 11.0562C77.1395 11.0562 77.0353 11.0255 76.8832 10.924C76.7341 10.8245 76.5578 10.6694 76.3532 10.4525L76.0507 10.74C76.2666 10.9692 76.4674 11.1487 76.6524 11.2722C76.8341 11.3937 77.0207 11.4745 77.2041 11.4745V11.0562ZM76.3545 10.4536C76.1532 10.2373 76.0091 10.0486 75.9161 9.88692C75.822 9.72344 75.7886 9.60172 75.7886 9.51538H75.372C75.372 9.70358 75.442 9.89926 75.5553 10.0961C75.6695 10.2947 75.8361 10.5092 76.0499 10.739L76.3545 10.4536ZM75.7886 9.51538C75.7886 9.43637 75.8224 9.32468 75.9249 9.17468C76.0261 9.0261 76.1849 8.85489 76.4074 8.66125L76.1349 8.34502C75.897 8.55174 75.7099 8.74939 75.5811 8.93821C75.4532 9.12565 75.372 9.31991 75.372 9.51538H75.7886ZM76.4086 8.66029C76.6324 8.4629 76.8261 8.3208 76.9899 8.22902C77.1566 8.13591 77.277 8.10324 77.3595 8.10324V7.68494C77.1766 7.68494 76.9836 7.75375 76.787 7.86368C76.5886 7.97491 76.3703 8.13733 76.1336 8.34598L76.4086 8.66029ZM77.3595 8.10324C77.4357 8.10324 77.5445 8.13666 77.6916 8.2394C77.837 8.34113 78.0045 8.50025 78.1936 8.72425L78.5111 8.45361C78.3091 8.21434 78.1153 8.02606 77.9295 7.89618C77.7453 7.76726 77.5532 7.68494 77.3595 7.68494V8.10324ZM78.1936 8.72425C78.3836 8.9493 78.5207 9.14422 78.6095 9.30979C78.6991 9.47748 78.7316 9.60093 78.7316 9.68697H79.1482C79.1482 9.50421 79.0824 9.31025 78.9766 9.11193C78.8695 8.91152 78.7128 8.69179 78.5111 8.45361L78.1936 8.72425ZM78.7316 9.68697C78.7316 9.75892 78.6995 9.86508 78.5982 10.0116C78.4978 10.1563 78.3416 10.3243 78.1211 10.5152L78.3936 10.8317C78.6282 10.6281 78.8128 10.4343 78.9403 10.2502C79.0666 10.0679 79.1482 9.87809 79.1482 9.68697H78.7316ZM78.1203 10.5161C77.902 10.708 77.7141 10.8459 77.5553 10.9349C77.3945 11.0254 77.2799 11.0562 77.2041 11.0562V11.4745C77.3811 11.4745 77.5686 11.4068 77.7591 11.2999C77.9516 11.1916 78.1641 11.0336 78.3945 10.8309L78.1203 10.5161ZM77.4816 9.45887C77.4974 9.45887 77.4878 9.46439 77.4441 9.43524C77.4036 9.40817 77.3495 9.36174 77.2816 9.28967L76.9791 9.57712C77.0582 9.6615 77.1366 9.73235 77.2132 9.78351C77.2866 9.83258 77.3786 9.87717 77.4816 9.87717V9.45887ZM77.2828 9.29071C77.2161 9.21927 77.1728 9.16146 77.147 9.11674C77.1203 9.07027 77.1207 9.05157 77.1207 9.05437H76.7041C76.7041 9.15347 76.7403 9.24608 76.7861 9.32593C76.8332 9.40755 76.8991 9.49112 76.9778 9.57608L77.2828 9.29071ZM77.1207 9.05437C77.1207 9.06445 77.117 9.05211 77.1445 9.01166C77.1711 8.97264 77.2178 8.92123 77.2907 8.85756L77.0182 8.54133C76.9299 8.61804 76.8549 8.69597 76.8011 8.77524C76.7478 8.85313 76.7041 8.94804 76.7041 9.05437H77.1207ZM77.292 8.8566C77.3666 8.79101 77.4261 8.7478 77.4724 8.72195C77.5211 8.69476 77.5399 8.69501 77.5361 8.69501V8.27671C77.4395 8.27671 77.3482 8.31256 77.2695 8.35661C77.1886 8.40191 77.1041 8.46549 77.017 8.54229L77.292 8.8566ZM77.5361 8.69501C77.5249 8.69501 77.5357 8.69087 77.5753 8.71839C77.6132 8.74491 77.6632 8.79126 77.7253 8.86484L78.0432 8.5942C77.9682 8.50535 77.8916 8.42989 77.8132 8.37518C77.7366 8.32147 77.6424 8.27671 77.5361 8.27671V8.69501ZM77.7253 8.86484C77.7886 8.93947 77.8303 8.99979 77.8553 9.04655C77.8811 9.09537 77.882 9.11578 77.882 9.11457H78.2986C78.2986 9.01907 78.2649 8.92817 78.2224 8.84865C78.1786 8.76708 78.1174 8.682 78.0432 8.5942L77.7253 8.86484ZM77.882 9.11457C77.882 9.1011 77.887 9.11118 77.8595 9.15092C77.8332 9.1889 77.7874 9.23935 77.7149 9.30222L77.9874 9.6187C78.0741 9.54324 78.1482 9.46686 78.2016 9.38952C78.2536 9.31393 78.2986 9.22023 78.2986 9.11457H77.882ZM77.7136 9.30309C77.6411 9.3668 77.5832 9.40867 77.5386 9.43361C77.492 9.46004 77.4753 9.45887 77.4816 9.45887V9.87717C77.5766 9.87717 77.6661 9.84145 77.7424 9.79866C77.8211 9.75444 77.9032 9.69249 77.9882 9.61787L77.7136 9.30309ZM78.3774 9.8284C78.402 9.8284 78.4203 9.83388 78.4307 9.83785C78.4411 9.84178 78.4466 9.84559 78.4474 9.84605C78.4482 9.84668 78.4466 9.84563 78.4424 9.84174C78.4378 9.83793 78.432 9.83229 78.4245 9.82434L78.122 10.1118C78.1495 10.1411 78.1811 10.1707 78.2166 10.1943C78.2486 10.2159 78.3049 10.2467 78.3774 10.2467V9.8284ZM78.4253 9.82539C78.4182 9.81761 78.4132 9.81146 78.4095 9.80694C78.4061 9.80229 78.4049 9.80025 78.4053 9.80062C78.4053 9.80083 78.4078 9.80531 78.4107 9.81367C78.4132 9.82204 78.417 9.83655 78.417 9.85575H78.0003C78.0003 9.92097 78.0241 9.97443 78.0445 10.0098C78.0657 10.047 78.0932 10.0808 78.1207 10.1107L78.4253 9.82539ZM78.417 9.85575C78.417 9.87822 78.412 9.89579 78.4078 9.90704C78.4036 9.91808 78.3995 9.92452 78.3982 9.92628C78.3966 9.92887 78.4003 9.92297 78.4166 9.90871L78.1441 9.59247C78.1124 9.61979 78.0803 9.65221 78.0545 9.68986C78.0299 9.72608 78.0003 9.78326 78.0003 9.85575H78.417ZM78.4178 9.90775C78.4261 9.90039 78.4328 9.89503 78.4378 9.89127C78.4432 9.88746 78.4457 9.88591 78.4461 9.88579C78.4461 9.88558 78.4424 9.88784 78.4349 9.89031C78.427 9.89281 78.4128 9.89645 78.3932 9.89645V9.47815C78.3295 9.47815 78.277 9.5015 78.2432 9.52044C78.207 9.54073 78.1732 9.56671 78.1428 9.59344L78.4178 9.90775ZM78.3932 9.89645C78.3707 9.89645 78.3528 9.89156 78.3411 9.88708C78.3299 9.88273 78.3232 9.8783 78.3211 9.87696C78.3182 9.87491 78.3241 9.87838 78.3378 9.89482L78.6553 9.62418C78.6286 9.59247 78.5966 9.55985 78.5595 9.53375C78.5236 9.50861 78.4661 9.47815 78.3932 9.47815V9.89645ZM78.3378 9.89482C78.3449 9.90315 78.3499 9.9098 78.3536 9.9149C78.357 9.92005 78.3586 9.92272 78.3586 9.92306C78.3591 9.92352 78.357 9.91988 78.3549 9.9126C78.3524 9.90532 78.3495 9.89181 78.3495 9.87357H78.7661C78.7661 9.81129 78.7445 9.7595 78.7257 9.72516C78.7066 9.68877 78.6811 9.6548 78.6553 9.62418L78.3378 9.89482ZM78.3495 9.87357C78.3495 9.84998 78.3545 9.83162 78.3586 9.82007C78.3632 9.80882 78.3674 9.80217 78.3686 9.80041C78.3707 9.79778 78.367 9.80363 78.3503 9.81781L78.6228 10.1343C78.6537 10.1075 78.6857 10.0758 78.7111 10.039C78.7353 10.004 78.7661 9.94682 78.7661 9.87357H78.3495ZM78.3495 9.81869C78.3416 9.8258 78.3349 9.83099 78.3299 9.83459C78.3278 9.83634 78.3257 9.83764 78.3245 9.83848C78.3232 9.83936 78.3224 9.83969 78.3228 9.83969C78.3228 9.83965 78.3236 9.83911 78.3253 9.83827C78.3274 9.83743 78.3303 9.83618 78.3345 9.83484C78.3424 9.83225 78.3574 9.8284 78.3774 9.8284V10.2467C78.4411 10.2467 78.4932 10.2231 78.5261 10.2047C78.5616 10.1848 78.5945 10.1594 78.6241 10.1335L78.3495 9.81869ZM77.2003 15.3111L68.7528 8.79093L68.4991 9.12256L76.9466 15.6428L77.2003 15.3111ZM68.7757 8.81142C68.6132 8.64222 68.5832 8.56208 68.5824 8.5182C68.5816 8.4795 68.6041 8.40178 68.7716 8.23676L68.4803 7.93797C68.3032 8.11198 68.162 8.29901 68.1657 8.52518C68.1695 8.74625 68.312 8.93127 68.4761 9.10202L68.7757 8.81142ZM68.8032 7.97763C68.7061 7.81967 68.6353 7.69209 68.5911 7.58509C68.5466 7.47704 68.5374 7.40895 68.5428 7.36469C68.5503 7.30374 68.5999 7.19816 68.9566 7.06652L68.8128 6.67395C68.4436 6.81015 68.1682 6.99349 68.1295 7.31433C68.1116 7.46094 68.1495 7.60693 68.2061 7.74518C68.2636 7.88447 68.3495 8.03539 68.4486 8.19711L68.8032 7.97763ZM69.0878 6.82466C69.0291 6.56126 68.9895 6.3442 68.977 6.16249C68.9641 5.98053 68.9799 5.84969 69.0191 5.75155C69.0882 5.578 69.2666 5.42884 69.7828 5.33748L69.7103 4.92554C69.1561 5.02363 68.7853 5.21283 68.6324 5.59574C68.5603 5.7759 68.5461 5.97786 68.5611 6.19186C68.5761 6.40611 68.6216 6.64822 68.6811 6.91585L69.0878 6.82466ZM69.9524 5.09955C69.8703 4.56693 69.917 4.31565 70.0391 4.18104C70.1003 4.1138 70.1982 4.05525 70.3628 4.0138C70.5291 3.97199 70.7499 3.95102 71.0403 3.94969L71.0386 3.53139C70.7341 3.53279 70.4749 3.55438 70.2616 3.60804C70.047 3.66206 69.8653 3.75191 69.7316 3.89906C69.4641 4.19322 69.4591 4.63473 69.5407 5.16347L69.9524 5.09955ZM71.2478 3.73568C71.2336 3.11916 71.3036 2.78542 71.4811 2.59292C71.6553 2.40366 71.9882 2.29411 72.6761 2.29789L72.6786 1.8796C71.9807 1.87577 71.4803 1.97759 71.1753 2.30888C70.8728 2.6369 70.817 3.13287 70.8311 3.7454L71.2478 3.73568ZM72.8703 2.16788C73.1236 1.5455 73.3595 1.27249 73.6378 1.17745C73.9295 1.07803 74.3386 1.14577 75.0145 1.41389L75.1674 1.02488C74.4936 0.757493 73.9532 0.628137 73.5041 0.781386C73.0416 0.939018 72.7453 1.36845 72.4845 2.00962L72.8703 2.16788ZM75.2382 1.36723C75.8095 0.793471 76.2474 0.613505 76.6861 0.6281C77.1486 0.64351 77.6499 0.873278 78.3586 1.23224L78.5466 0.85878C77.8566 0.50929 77.2711 0.229048 76.6999 0.21003C76.1041 0.190201 75.5607 0.451397 74.9436 1.07154L75.2382 1.36723ZM78.5311 1.23916C79.097 1.00749 79.4878 0.916895 79.8553 1.00104C80.2236 1.08541 80.6124 1.35619 81.1399 1.96521L81.4545 1.69067C80.9099 1.06238 80.4482 0.707811 79.9478 0.593226C79.4466 0.478428 78.9516 0.615266 78.3741 0.851861L78.5311 1.23916ZM81.3049 2.03694C81.5595 2.02727 81.7616 2.01036 81.952 2.01267C82.1374 2.01491 82.277 2.03634 82.3891 2.08865C82.592 2.18359 82.7878 2.42353 82.9016 3.1639L83.3132 3.10007C83.1945 2.32805 82.9674 1.89761 82.5649 1.70944C82.3741 1.62021 82.1649 1.59691 81.957 1.5944C81.7537 1.59194 81.5178 1.61025 81.2895 1.61894L81.3049 2.03694ZM83.1007 3.34103C83.7041 3.35978 84.0391 3.44274 84.2362 3.63443C84.4299 3.82285 84.5416 4.16841 84.537 4.86932L84.9537 4.87208C84.9582 4.15654 84.8528 3.65144 84.5262 3.33396C84.2028 3.01976 83.7145 2.9416 83.1137 2.92293L83.1007 3.34103ZM84.6636 5.06312C85.1474 5.27001 85.3686 5.4554 85.4561 5.67639C85.5457 5.90444 85.5191 6.23402 85.3241 6.80208L85.7178 6.93844C85.9157 6.36244 85.9932 5.90281 85.8432 5.52237C85.6907 5.13485 85.3278 4.89253 84.827 4.67828L84.6636 5.06312ZM85.4657 7.07196C85.7911 7.16152 85.9295 7.2771 85.9895 7.38293C86.0499 7.48989 86.0603 7.63868 86.0074 7.86623L86.4137 7.96077C86.4745 7.69632 86.4895 7.41974 86.3516 7.17616C86.2128 6.93146 85.9495 6.77141 85.5761 6.66855L85.4657 7.07196ZM86.072 7.75739L77.6245 15.3209L77.9016 15.6331L86.3491 8.06957L86.072 7.75739ZM77.7628 15.2678H77.0736V15.6861H77.7628V15.2678ZM69.5874 7.65917L72.3436 9.71265L72.592 9.37676L69.8357 7.32328L69.5874 7.65917ZM70.4903 6.04901L73.2466 8.55881L73.5266 8.24894L70.7703 5.73913L70.4903 6.04901ZM71.8549 4.66661L74.152 7.17641L74.4591 6.89339L72.162 4.38359L71.8549 4.66661ZM73.4486 3.50814L75.2861 6.01793L75.622 5.77021L73.7841 3.2604L73.4486 3.50814ZM75.2549 2.53372L76.1736 5.49986L76.5716 5.37563L75.6528 2.4095L75.2549 2.53372ZM78.0049 2.43687L77.5457 5.17484L77.9566 5.24432L78.4157 2.50636L78.0049 2.43687ZM80.3249 2.82697L78.9466 5.33677L79.3116 5.53872L80.6899 3.02892L80.3249 2.82697ZM82.1907 3.92803L80.1236 6.20968L80.432 6.49115L82.4991 4.20949L82.1907 3.92803ZM83.5941 5.50191L81.297 7.32721L81.5553 7.6552L83.8524 5.8299L83.5941 5.50191ZM84.2974 7.31663L82.2303 8.6856L82.4599 9.0348L84.527 7.66582L84.2974 7.31663ZM77.5211 15.6861H80.737V15.2678H77.5211V15.6861ZM77.062 15.2678H73.8461V15.6861H77.062V15.2678Z" fill="black"/>
</g>
<defs>
<clipPath id="clip0_123_10766">
<rect width="155" height="64" fill="white"/>
</clipPath>
</defs>
</svg>
