<svg width="12" height="12" viewBox="0 0 12 12" fill="none" xmlns="http://www.w3.org/2000/svg">
<path d="M6 0C2.69077 0 0 2.69077 0 6C0 9.30923 2.69077 12 6 12C9.30923 12 12 9.30923 12 6C12 2.69077 9.30923 0 6 0ZM6.46154 11.0538V7.38462H7.84615C8.1 7.38462 8.30769 7.17692 8.30769 6.92308C8.30769 6.66923 8.1 6.46154 7.84615 6.46154H6.46154V5.06769C6.46154 4.82308 6.55846 4.59231 6.73385 4.42154C6.90462 4.25077 7.13538 4.15385 7.38 4.15385H8.30769C8.56154 4.15385 8.76923 3.94615 8.76923 3.69231C8.76923 3.43846 8.56154 3.23077 8.30769 3.23077H7.38C6.89077 3.23077 6.42923 3.42 6.08308 3.76615C5.73231 4.11231 5.53846 4.57385 5.53846 5.06308V6.46154H4.15385C3.9 6.46154 3.69231 6.66923 3.69231 6.92308C3.69231 7.17692 3.9 7.38462 4.15385 7.38462H5.53846V11.0538C2.95385 10.8185 0.923077 8.64 0.923077 6C0.923077 3.19846 3.19846 0.923077 6 0.923077C8.80154 0.923077 11.0769 3.19846 11.0769 6C11.0769 8.64462 9.04615 10.8231 6.46154 11.0538Z" fill="black" fill-opacity="0.7"/>
</svg>
