<svg width="11" height="11" viewBox="0 0 11 11" fill="none" xmlns="http://www.w3.org/2000/svg">
<path fill-rule="evenodd" clip-rule="evenodd" d="M5.5 3.74C4.52798 3.74 3.74 4.52798 3.74 5.5C3.74 6.47202 4.52798 7.26 5.5 7.26C6.47202 7.26 7.26 6.47202 7.26 5.5C7.26 4.52798 6.47202 3.74 5.5 3.74ZM2.86 5.5C2.86 4.04197 4.04197 2.86 5.5 2.86C6.95803 2.86 8.14 4.04197 8.14 5.5C8.14 6.95803 6.95803 8.14 5.5 8.14C4.04197 8.14 2.86 6.95803 2.86 5.5Z" fill="black" fill-opacity="0.7"/>
<path fill-rule="evenodd" clip-rule="evenodd" d="M3.08 0.88C1.86497 0.88 0.88 1.86497 0.88 3.08V7.92C0.88 9.13503 1.86497 10.12 3.08 10.12H7.92C9.13503 10.12 10.12 9.13503 10.12 7.92V3.08C10.12 1.86497 9.13503 0.88 7.92 0.88H3.08ZM0 3.08C0 1.37896 1.37896 0 3.08 0H7.92C9.62104 0 11 1.37896 11 3.08V7.92C11 9.62104 9.62104 11 7.92 11H3.08C1.37896 11 0 9.62104 0 7.92V3.08Z" fill="black" fill-opacity="0.7"/>
<path d="M8.36 3.3C8.72451 3.3 9.02 3.00451 9.02 2.64C9.02 2.27549 8.72451 1.98 8.36 1.98C7.99549 1.98 7.7 2.27549 7.7 2.64C7.7 3.00451 7.99549 3.3 8.36 3.3Z" fill="black" fill-opacity="0.7"/>
</svg>
