<svg width="10" height="10" viewBox="0 0 10 10" fill="none" xmlns="http://www.w3.org/2000/svg">
<path d="M7.21193 10C3.23535 10 0 6.76469 0 2.78815C0 1.38084 1.05274 0.18538 2.44805 0.00658592C2.80314 -0.0394898 3.14721 0.159838 3.28443 0.490381L4.2896 2.83523C4.39527 3.07863 4.37273 3.35959 4.22899 3.58446L3.39161 4.85805C3.76322 5.62381 4.38976 6.24934 5.15703 6.61795L6.4086 5.77957C6.63397 5.62682 6.92045 5.60027 7.17236 5.71045L9.51374 6.71611C9.84028 6.85183 10.0391 7.19589 9.99353 7.55098C9.81473 8.94627 8.61926 9.9985 7.21243 9.999L7.21193 10ZM2.54621 0.801892C1.55107 0.931104 0.801325 1.78451 0.801325 2.78815C0.801325 6.32296 3.67708 9.19868 7.21193 9.19868C8.21559 9.19868 9.0685 8.44845 9.19821 7.45382L6.85384 6.44716L5.60177 7.28354C5.36988 7.44029 5.06688 7.46333 4.81196 7.34264C3.87942 6.8939 3.11966 6.13615 2.66941 5.20663L2.66841 5.20512C2.54922 4.95572 2.56825 4.65622 2.7185 4.42384L3.55638 3.14925L2.54621 0.801892Z" fill="white"/>
</svg>
