<svg width="13" height="13" viewBox="0 0 13 13" fill="none" xmlns="http://www.w3.org/2000/svg">
<path fill-rule="evenodd" clip-rule="evenodd" d="M5.75004 0.999998C3.12667 0.999998 1.00001 3.12664 1.00001 5.74999C1.00001 8.37334 3.12667 10.5 5.75004 10.5C8.37341 10.5 10.5001 8.37334 10.5001 5.74999C10.5001 3.12664 8.37341 0.999998 5.75004 0.999998ZM0 5.74999C0 2.57436 2.57438 0 5.75004 0C8.9257 0 11.5001 2.57436 11.5001 5.74999C11.5001 8.92562 8.9257 11.5 5.75004 11.5C2.57438 11.5 0 8.92562 0 5.74999Z" fill="#161616" fill-opacity="0.6"/>
<path fill-rule="evenodd" clip-rule="evenodd" d="M9.10892 9.10895C9.30418 8.91369 9.62077 8.91369 9.81603 9.10895L12.8536 12.1464C13.0488 12.3417 13.0488 12.6583 12.8536 12.8536C12.6583 13.0488 12.3417 13.0488 12.1464 12.8536L9.10892 9.81606C8.91365 9.6208 8.91365 9.30422 9.10892 9.10895Z" fill="#161616" fill-opacity="0.6"/>
</svg>
