<svg width="14" height="14" viewBox="0 0 14 14" fill="none" xmlns="http://www.w3.org/2000/svg">
<path fill-rule="evenodd" clip-rule="evenodd" d="M6.99991 1.12C4.93807 1.12 3.26662 2.87504 3.26662 5.03999C3.26662 7.20494 4.93807 8.95998 6.99991 8.95998C9.06175 8.95998 10.7332 7.20494 10.7332 5.03999C10.7332 2.87504 9.06175 1.12 6.99991 1.12ZM2.19997 5.03999C2.19997 2.25648 4.34898 0 6.99991 0C9.65084 0 11.7998 2.25648 11.7998 5.03999C11.7998 7.8235 9.65084 10.08 6.99991 10.08C4.34898 10.08 2.19997 7.8235 2.19997 5.03999Z" fill="black"/>
<path fill-rule="evenodd" clip-rule="evenodd" d="M7 10.0793C5.78285 10.0793 4.58715 10.4157 3.5331 11.0548C2.47905 11.6939 1.60379 12.613 0.995314 13.7199C0.848064 13.9877 0.521895 14.0795 0.266795 13.9249C0.0116951 13.7703 -0.0757338 13.4278 0.0715168 13.16C0.773605 11.8828 1.78352 10.8222 2.99973 10.0849C4.21595 9.3475 5.5956 8.95929 7 8.95929C8.4044 8.95929 9.78405 9.3475 11.0003 10.0849C12.2165 10.8222 13.2264 11.8828 13.9285 13.16C14.0757 13.4278 13.9883 13.7703 13.7332 13.9249C13.4781 14.0795 13.1519 13.9877 13.0047 13.7199C12.3962 12.613 11.521 11.6939 10.4669 11.0548C9.41285 10.4157 8.21715 10.0793 7 10.0793Z" fill="black"/>
<path d="M11 5C11 7.20914 9.20914 9 7 9C4.79086 9 3 7.20914 3 5C3 2.79086 4.79086 1 7 1C9.20914 1 11 2.79086 11 5Z" fill="black"/>
<path d="M13.5 14C9.5 14 11.6421 14 7.5 14C3.35786 14 0.5 14 0.5 14C0.5 11.7909 3.35786 9 7.5 9C11.6421 9 12.5 13.5 13.5 14Z" fill="black"/>
</svg>
